<!-- Generated by IcoMoon.io -->
<svg version="1.1" xmlns="http://www.w3.org/2000/svg" width="1229" height="1024" viewBox="0 0 1229 1024">
<title></title>
<g id="icomoon-ignore">
</g>
<path d="M211.222 386.584c-16.248-33.444-32.496-83.61-32.496-125.415s8.124-91.971 32.496-125.415c24.372-33.444 48.744-66.888 89.364-91.971s81.24-33.444 121.861-33.444c40.62 0 89.364 8.361 121.861 33.444s73.116 50.165 97.489 91.971c24.372 41.805 32.496 83.61 32.496 125.415s-16.248 91.971-32.496 125.415c-16.248 33.442-56.868 66.889-89.364 91.973s-81.24 33.442-129.985 33.442c-48.744 0-81.24-8.36-121.861-33.442s-64.992-50.166-89.364-91.973zM723.037 612.331c-40.62-25.083-81.24-33.442-129.985-33.442h-24.372c-48.744 16.719-97.489 25.083-146.233 25.083s-89.364-8.364-138.109-25.083h-32.496c-48.744 0-89.364 8.36-129.985 33.442s-64.992 50.166-89.364 91.973c-24.372 41.802-32.496 83.609-32.496 133.775v83.609c0 25.083 8.124 50.166 24.372 66.889s40.62 25.083 64.992 25.083h666.172c24.372 0 48.744-8.36 64.992-25.083s24.372-41.806 24.372-66.889v-83.609c0-50.166-8.124-91.973-32.496-133.775-24.372-41.806-48.744-66.889-89.364-91.973zM1210.48 428.39c-8.124-8.364-16.248-8.364-24.372-8.364h-121.861v-125.414c0-8.361 0-16.722-8.124-25.083s-8.124-8.361-16.248-8.361h-64.992c-8.124 0-16.248 0-24.372 8.361s-8.124 16.722-8.124 25.083v125.414h-121.861c-8.124 0-16.248 0-24.372 8.364-8.124 8.36 0 8.36 0 16.719v66.889c0 8.36 0 16.723 8.124 25.083s16.248 8.36 24.372 8.36h121.861v125.415c0 8.364 0 16.723 8.124 25.083 8.124 8.364 16.248 8.364 24.372 8.364h64.992c8.124 0 16.248 0 24.372-8.364 8.124-8.36 8.124-16.719 8.124-25.083v-125.415h121.861c8.124 0 16.248 0 24.372-8.36s-8.124-16.723-8.124-25.083v-66.889c0-8.36 0-8.36-8.124-16.719z"></path>
</svg>
