<!-- Generated by IcoMoon.io -->
<svg version="1.1" xmlns="http://www.w3.org/2000/svg" width="1365" height="1024" viewBox="0 0 1365 1024">
<title></title>
<g id="icomoon-ignore">
</g>
<path d="M217.728 384.031c-16.749-34.125-33.497-85.313-33.497-127.969s8.374-93.844 33.497-127.969c25.123-42.657 58.62-68.251 92.117-93.844 41.871-25.594 83.743-34.125 125.614-34.125s92.118 8.531 125.614 34.125c41.872 25.594 75.368 51.188 100.494 93.844 25.121 42.657 33.496 85.313 33.496 127.969s-8.375 93.844-33.496 127.969c-25.126 42.657-58.622 68.251-92.118 93.844-41.872 25.594-83.744 34.125-133.989 34.125-41.872 0-83.743-8.531-125.614-34.125-33.497-25.594-66.994-51.188-92.117-93.844zM745.305 614.375c-41.872-25.594-83.738-34.125-133.985-34.125h-25.126c-50.242 17.063-100.489 25.594-150.735 25.594s-92.118-8.531-142.363-25.594h-33.497c-50.245 0-92.117 8.531-133.988 34.125-33.497 25.594-66.995 51.188-92.117 93.844s-33.497 85.313-33.497 136.5v85.313c0 25.594 8.374 51.188 25.123 68.251s41.871 25.594 66.994 25.594h686.692c25.121 0 50.242-8.531 66.993-25.594s25.121-42.657 25.121-68.251v-85.313c0-51.188-8.37-93.844-33.496-136.5-16.746-42.657-50.247-68.251-92.118-93.844zM1247.763 213.405l-226.104 230.345-92.118-93.844-117.24 110.906 209.358 213.282 343.343-349.783-117.24-110.906z"></path>
</svg>
