<!-- Generated by IcoMoon.io -->
<svg version="1.1" xmlns="http://www.w3.org/2000/svg" width="1210" height="1024" viewBox="0 0 1210 1024">
<title></title>
<g id="icomoon-ignore">
</g>
<path d="M241.997 84.9l-18.15-81.909h-223.853v93.61h145.202l133.102 579.209-145.202 157.967h895.411v-93.609h-677.608l36.3-40.954-12.1-58.504 834.909-87.763v-468.047h-968.011zM1113.208 471.039l-762.309 81.909-84.701-374.437h847.010v292.528z"></path>
<path d="M338.797 857.192c-48.4 0-84.701 35.104-84.701 81.909s36.3 81.909 84.701 81.909c48.4 0 84.701-35.104 84.701-81.909 6.050-46.805-36.3-81.909-84.701-81.909z"></path>
<path d="M961.938 857.192c-48.4 0-84.701 35.104-84.701 81.909s36.3 81.909 84.701 81.909c48.4 0 84.701-35.104 84.701-81.909s-36.3-81.909-84.701-81.909z"></path>
</svg>
