<!-- Generated by IcoMoon.io -->
<svg version="1.1" xmlns="http://www.w3.org/2000/svg" width="1660" height="1024" viewBox="0 0 1660 1024">
<title></title>
<g id="icomoon-ignore">
</g>
<path fill="#000" d="M1622.717 1015.172h-1585.434c-17.655 0-31.779-14.124-31.779-31.779s14.124-31.779 31.779-31.779h1585.434c17.655 0 31.779 14.124 31.779 31.779s-14.124 31.779-31.779 31.779z"></path>
<path fill="#000" d="M821.172 361.929v-158.897h-31.779v-21.186c10.593 0 17.655-3.531 24.717-7.062s14.124-10.593 17.655-17.655h24.717v204.8h-35.31z"></path>
<path fill="#000" d="M298.579 686.786c0-17.655 7.062-35.31 17.655-45.903s24.717-14.124 42.372-14.124c17.656 0 31.78 3.531 42.373 14.124s17.655 21.186 17.655 35.31c0 14.124-3.531 28.248-10.593 38.841-3.531 7.062-14.124 21.186-28.248 38.841-3.531 3.531-10.593 10.593-17.655 21.186l-7.062 10.593c-3.531 7.062-7.062 10.593-10.593 14.124v3.531h74.152v31.779h-120.056v-28.248c0 0 3.531-3.531 7.062-10.593 3.531-3.531 7.062-7.062 7.062-10.593l10.593-10.593c7.062-7.062 14.124-17.655 28.248-31.779 10.593-14.124 21.187-24.717 24.718-35.31 3.531-7.062 7.062-17.655 7.062-24.717s-3.531-10.593-7.062-14.124c-3.531-3.531-10.593-7.062-17.656-7.062-10.593 0-17.655 3.531-21.186 14.124 0 3.531-3.531 7.062-3.531 10.593v7.062h-35.31v-7.062z"></path>
<path fill="#000" d="M1315.517 803.31c17.655 0 24.717-7.062 24.717-21.186v-10.593c0-21.186-14.124-31.779-38.841-31.779v-24.717c14.124 0 24.717-3.531 31.779-10.593s10.593-14.124 10.593-24.717v-3.531c0-14.124-7.062-21.186-21.186-21.186-7.062 0-14.124 3.531-17.655 7.062s-3.531 7.062-3.531 14.124v7.062h-35.31v-3.531c0-14.124 3.531-28.248 14.124-35.31 10.593-10.593 24.717-14.124 42.372-14.124s31.779 3.531 42.372 14.124c10.593 7.062 14.124 21.186 14.124 31.779v7.062c0 14.124-3.531 24.717-14.124 31.779-3.531 3.531-7.062 7.062-14.124 10.593 10.593 3.531 21.186 14.124 24.717 24.717 3.531 7.062 3.531 10.593 3.531 21.186v14.124c0 14.124-7.062 28.248-17.655 38.841s-24.717 14.124-42.372 14.124c-17.655 0-31.779-3.531-42.372-14.124s-17.655-21.186-17.655-35.31v-3.531l35.31-3.531v7.062c0 3.531 3.531 10.593 7.062 14.124 3.531 0 7.062 0 14.124 0z"></path>
<path fill="#000" d="M1548.565 1015.172h-1440.662c-17.655 0-31.779-14.124-31.779-31.779v-512c0-17.655 14.124-31.779 31.779-31.779h455.503v-399.007c0-17.655 14.124-31.779 31.779-31.779h494.345c17.655 0 31.779 14.124 31.779 31.779v402.538h427.255c17.655 0 31.779 14.124 31.779 31.779v512c0 14.124-14.124 28.248-31.779 28.248zM139.682 955.144h1380.634v-451.972h-430.786c-17.655 0-31.779-14.124-31.779-31.779v-399.007h-430.786v402.538c0 17.655-14.124 31.779-31.779 31.779h-455.503v448.441z"></path>
<path fill="#000" d="M1086 1001.048c-10.593 0-17.655-7.062-17.655-17.655v-512c0-10.593 7.062-17.655 17.655-17.655s17.655 7.062 17.655 17.655v512c0 10.593-7.062 17.655-17.655 17.655z"></path>
<path fill="#000" d="M598.717 1001.048c-10.593 0-17.655-7.062-17.655-17.655v-512c0-10.593 7.062-17.655 17.655-17.655s17.655 7.062 17.655 17.655v512c0 10.593-7.062 17.655-17.655 17.655z"></path>
<path fill="#000" d="M1110.717 506.703h-512c-10.593 0-17.655-7.062-17.655-17.655s7.062-17.655 17.655-17.655h512c10.593 0 17.655 7.062 17.655 17.655s-7.062 17.655-17.655 17.655z"></path>
</svg>
