<!-- Generated by IcoMoon.io -->
<svg version="1.1" xmlns="http://www.w3.org/2000/svg" width="1024" height="1024" viewBox="0 0 1024 1024">
<title></title>
<g id="icomoon-ignore">
</g>
<path d="M982.204 313.469c-26.122-62.694-62.694-120.163-109.714-161.959-47.020-47.020-99.265-83.592-161.959-109.714s-130.612-41.796-198.531-41.796c-67.918 0-135.837 15.673-198.531 41.796s-120.163 62.694-161.959 109.714c-47.020 41.796-83.592 99.265-109.714 161.959s-41.796 130.612-41.796 198.531c0 67.918 15.673 135.837 41.796 198.531s62.694 120.163 109.714 161.959c47.020 41.796 99.265 83.592 161.959 109.714s130.612 41.796 198.531 41.796c67.918 0 135.837-15.673 198.531-41.796s120.163-62.694 161.959-109.714c47.020-47.020 83.592-99.265 109.714-161.959s41.796-130.612 41.796-198.531c0-67.918-15.673-135.837-41.796-198.531zM914.286 684.408c-20.898 52.245-52.245 99.265-94.041 141.061-36.571 36.571-83.592 67.918-141.061 94.041-52.245 20.898-109.714 36.571-172.408 36.571s-109.714-15.673-167.184-41.796c-52.245-20.898-99.265-52.245-141.061-94.041-36.571-36.571-67.918-83.592-94.041-141.061-20.898-52.245-36.571-109.714-36.571-172.408 0-57.469 10.449-114.939 36.571-172.408 20.898-52.245 52.245-99.265 94.041-141.061 36.571-36.571 83.592-67.918 141.061-94.041 52.245-20.898 109.714-36.571 172.408-36.571s114.939 10.449 172.408 36.571c52.245 20.898 99.265 52.245 141.061 94.041 36.571 36.571 67.918 83.592 94.041 141.061 20.898 52.245 36.571 109.714 36.571 172.408-5.224 62.694-15.673 120.163-41.796 177.633zM679.184 626.939c5.224 5.224 10.449 15.673 10.449 26.122s-5.224 20.898-10.449 26.122c-5.224 5.224-15.673 10.449-26.122 10.449s-20.898-5.224-26.122-10.449l-141.061-141.061c-5.224-5.224-10.449-15.673-10.449-26.122v-287.347c0-10.449 5.224-20.898 10.449-26.122s15.673-10.449 26.122-10.449c10.449 0 20.898 5.224 26.122 10.449s10.449 15.673 10.449 26.122v271.673l130.612 130.612z"></path>
</svg>
