<!-- Generated by IcoMoon.io -->
<svg version="1.1" xmlns="http://www.w3.org/2000/svg" width="711" height="1024" viewBox="0 0 711 1024">
<title></title>
<g id="icomoon-ignore">
</g>
<path fill="#000" d="M701.444 865.401c-1.732-77.574-39.882-149.979-107.511-203.42-15.607-12.066-32.947-24.135-50.287-34.478 17.34-18.964 29.477-41.372 39.882-63.784 1.735 0 1.735 0 3.467 0 45.087-10.345 76.299-49.994 76.299-96.54 0-20.685-6.935-39.649-19.075-56.889 3.47-15.514 5.202-29.306 6.938-41.372 5.202-6.895 6.935-17.24 6.935-27.583 0-32.754-5.2-63.784-10.402-94.815-1.735-12.068-3.47-24.135-5.202-36.202-1.735-13.791-3.47-32.754-10.405-49.993-3.467-10.343-6.938-18.963-12.137-25.859-5.202-6.896-10.405-13.791-13.875-18.963l-1.732-1.724c-1.735-1.724-3.467-5.172-5.202-6.896-27.745-37.926-76.299-63.785-112.714-75.852-19.075-6.896-43.352-10.343-69.362-12.067-15.607-18.963-41.62-18.963-53.757-18.963v15.515l-1.735-15.515c-12.137 0-36.415 0-50.287 15.515-52.022 3.448-95.374 17.239-128.321 37.926-17.341 12.067-32.947 24.135-45.086 34.478-41.618 41.374-52.022 91.367-58.958 137.912-3.468 25.859-6.936 53.441-10.404 84.472v5.171c0 6.895-1.734 13.793-1.734 22.411 0 10.342 1.734 20.688 6.936 27.583 1.734 10.342 3.468 20.688 5.202 32.754-15.607 17.24-24.277 41.372-24.277 65.508 0 46.546 32.947 86.195 76.299 96.54 8.67 24.135 22.543 44.82 39.883 63.784-19.075 10.342-36.415 20.688-52.022 34.478-65.894 53.441-104.044 125.847-107.512 203.42l-1.734 17.24c0 5.171 3.468 10.342 6.936 13.79l12.138 6.898c79.767 48.267 199.418 75.85 327.737 75.85 52.022 0 102.312-5.171 149.131-13.79 5.202 29.306 8.67 48.267 8.67 48.267 0 5.174 3.467 8.622 6.935 10.345 3.47 1.724 5.202 3.447 8.673 3.447 1.732 0 1.732 0 3.467 0 55.489-10.342 119.652-34.478 123.119-34.478 6.935-1.724 10.405-8.622 10.405-13.793 0-22.411-1.735-43.096-3.47-63.784 6.938-3.447 13.872-6.895 20.81-12.066l10.405-6.898c5.202-3.447 6.935-8.619 6.935-13.79v-13.793zM356.365 736.11c-114.447 0-164.735-56.889-178.608-77.577 5.202-3.447 8.67-5.171 13.873-8.619 43.352 37.925 100.576 62.060 164.735 62.060 64.162 0 121.387-22.411 164.736-60.336 5.202 1.724 8.673 5.171 13.875 6.895-15.607 20.688-64.162 77.577-178.611 77.577zM417.059 743.005c26.010 20.688 46.82 48.27 62.424 79.3-26.010 10.342-72.829 8.619-88.437 6.895 0-22.411-10.405-67.231-13.872-84.471 13.872-1.724 26.010-3.447 38.15-5.171 1.735 1.724 1.735 3.447 1.735 3.447zM144.81 503.383c1.734 0 1.734 0 3.468 0s3.468 0 3.468 0h1.734c1.734 0 3.468 0 6.936 0 1.734 0 3.468 0 3.468 0h1.734c1.734 0 3.468 0 3.468-1.724h1.734l5.202-1.724c1.734 0 3.468-1.724 5.202-1.724 13.872-8.622 27.745-17.24 41.618-27.583 38.149-27.583 74.565-55.165 136.992-55.165 62.424 0 98.842 25.859 136.991 55.165 13.872 10.342 26.010 18.961 41.617 27.583 1.732 1.724 3.467 1.724 5.202 3.447 1.732 0 1.732 1.724 3.467 1.724h1.735c1.732 0 1.732 0 5.2 1.724 1.735 0 1.735 0 5.202 1.724 1.735 0 1.735 0 3.47 0 1.732 0 1.732 0 3.467 0-12.14 96.538-102.309 174.114-209.823 174.114-58.957 0-112.713-22.411-150.863-60.336l-1.734-1.724c-31.213-31.030-53.756-70.682-58.958-115.502zM564.453 472.353c0 0 1.735 0 0 0 1.735 0 1.735 0 1.735 0s0 0-1.735 0zM630.347 467.179c0 25.859-13.872 48.27-36.415 60.339 1.735-10.345 3.467-20.688 5.202-32.757l5.202-3.447c0 0 1.732 0 1.732-1.724 1.735-1.724 5.202-3.447 6.938-6.895 6.938-6.895 12.137-17.24 17.34-27.583 0 3.447 0 6.895 0 12.066zM96.256 322.371v-5.171c3.468-29.306 6.936-56.888 10.404-82.747 6.936-44.821 15.607-89.643 52.022-122.397 10.404-10.343 24.277-20.687 39.883-31.030 31.213-18.963 71.097-31.030 121.384-34.478 5.202 0 10.405-3.448 12.14-6.896 5.2-6.896 22.542-8.62 31.212-6.896h1.735c6.935 0 26.010 0 29.477 6.896 1.735 5.172 6.938 6.896 12.14 8.62 26.010 1.724 50.287 5.172 69.362 12.067 31.212 10.344 72.832 32.754 97.106 65.508 1.735 3.448 3.47 5.172 6.938 8.62l1.735 1.724c5.202 5.172 8.67 12.067 13.872 17.239 3.467 5.172 6.935 12.067 8.67 18.963 5.202 13.791 6.935 31.030 8.67 44.821 1.735 12.068 3.467 24.135 5.202 37.926 5.202 29.306 10.405 60.336 10.405 89.643 0 5.171-1.735 8.619-3.47 12.069-1.732 1.724-3.467 5.171-3.467 8.619-5.202 46.544-17.34 84.471-31.212 99.985-1.735 1.724-1.735 1.724-3.47 3.447l-10.402 6.898c0 0 0 0-1.735 0s-3.467 0-5.202 0c-1.732 0-3.467 0-5.202 0l-5.202-1.724-1.732-1.724c-1.735 0-1.735-1.724-1.735-1.724-12.137-6.898-24.277-15.516-38.15-25.859-38.15-27.583-83.234-60.336-154.331-60.336-72.831 0-116.182 32.754-154.332 60.336-13.873 10.342-26.011 18.961-38.149 25.859 0 0-1.734 1.724-3.468 1.724h-3.468c0 0 0 0-1.734 0s-1.734 0-3.468 0h-6.936c-1.734 0-3.468 0-3.468 0h-1.734l-12.138-12.069c-13.872-15.514-26.011-53.441-31.213-99.985 0-3.447-1.734-5.174-3.468-8.622 0 0 0-1.724-1.734-1.724 1.734 1.724 3.468 3.447 5.202 1.724s261.845-108.605 515.018 0h1.735c1.732 0 3.467-1.724 5.2-3.447 1.735-3.447 0-5.171-3.467-6.895-256.64-110.33-520.219-1.724-521.953 0-3.468 3.447-3.468 5.171-3.468 6.895 0-1.724-1.734-5.171-1.734-8.619 0-5.171 0-12.066 1.734-17.24zM82.384 467.179c0-8.619 1.734-15.514 5.202-24.132 5.202 15.514 12.139 29.306 22.543 39.649l1.734 1.724c0 0 0 0 1.734 1.724 0 13.793 1.734 25.859 5.202 39.649-22.543-12.066-36.415-34.478-36.415-58.613zM44.234 872.299l-3.468-1.724v-3.45c1.734-68.955 36.415-132.739 95.373-181.009 10.404-8.619 20.809-15.514 31.213-22.411 13.873 22.411 65.894 82.748 187.28 82.748 3.467 0 8.67 0 12.137 0 3.467 15.516 13.872 68.958 13.872 87.919 0 3.447 1.735 5.174 5.202 5.174 1.735 0 15.607 1.724 32.947 1.724 20.81 0 46.82-1.727 65.894-8.622 15.607 32.754 26.012 65.51 34.682 96.54-1.735 0-3.467 0-5.202 0-50.287 10.342-104.044 15.514-157.801 15.514-123.118-1.724-237.566-27.583-312.131-72.402zM541.911 989.524c-1.735-10.345-3.467-25.859-8.67-43.099 0-1.724 0-3.447-1.735-5.171-15.605-67.231-46.82-155.15-105.776-201.697 43.352-10.342 72.829-29.306 91.904-46.546 22.542 17.24 93.639 79.3 110.982 213.766 1.732 18.964 3.467 37.925 3.467 56.889-15.607 5.171-53.757 17.237-90.172 25.859zM666.765 872.299c-6.938 3.447-13.872 8.619-22.545 12.066-1.732 1.724-3.467 3.447-5.202 5.171-20.807-125.844-86.702-187.904-110.979-206.868 6.938-8.619 13.872-15.516 15.607-20.688 10.402 6.898 22.542 13.793 31.212 22.411 58.96 48.27 93.639 112.054 95.374 181.009v3.45l-3.467 3.447zM358.1 270.655v-205.145c0-3.448 1.735-5.172 5.202-5.172s5.202 1.724 5.202 5.172v205.145c0 3.448-1.735 5.172-5.202 5.172s-5.202-1.724-5.202-5.172zM266.195 205.147c1.734 15.515-3.468 32.754-15.607 44.822s-29.479 17.239-45.086 13.791c-1.734 0-1.734-1.724-1.734-3.448v-1.724h1.734c15.607 3.448 29.479-1.724 41.618-12.067 10.404-10.344 15.607-25.859 13.873-39.65 0-1.724 0-3.448 1.734-3.448 1.734-1.724 1.734 0 3.468 1.724zM172.555 255.14c0 1.724-1.734 3.448-3.468 3.448s-3.468-1.724-3.468-3.448c0-1.724 1.734-3.448 3.468-3.448s3.468 1.724 3.468 3.448zM278.333 153.43c0 1.724-1.734 3.448-3.468 3.448s-3.468-1.724-3.468-3.448c0-1.724 1.734-3.448 3.468-3.448 1.734-1.724 3.468 0 3.468 3.448zM262.726 160.325c0-1.724 1.734-3.448 3.468-3.448s3.468 1.724 3.468 3.448c0 1.724-1.734 3.448-3.468 3.448s-3.468-1.724-3.468-3.448zM162.151 218.938c-1.734-15.515 3.468-32.754 15.607-44.822s29.479-17.239 45.086-13.791c1.734 0 1.734 1.724 1.734 3.448v1.724h-1.734c-15.607-3.448-29.479 1.724-41.618 12.067-10.404 10.344-15.607 25.859-13.873 39.65 0 1.724 0 3.448-1.734 3.448s-3.468 0-3.468-1.724zM156.948 262.036c0-1.724 1.734-3.448 3.468-3.448s3.468 1.724 3.468 3.448c0 1.724-1.734 3.448-3.468 3.448-1.734 1.724-3.468 0-3.468-3.448zM176.023 210.319c0 20.687 17.341 37.926 38.149 39.65 20.809 0 38.149-17.239 39.883-37.926 0-20.687-17.341-37.926-38.149-39.65-22.543 0-39.883 17.239-39.883 37.926zM240.184 212.043c0 13.791-12.138 25.859-26.011 25.859s-26.011-12.068-26.011-25.859c0-13.791 12.138-25.859 26.011-25.859s26.011 12.068 26.011 25.859zM148.278 270.655c0-1.724 1.734-3.448 3.468-3.448s3.468 1.724 3.468 3.448c0 1.724-1.734 3.448-3.468 3.448s-3.468-1.724-3.468-3.448zM160.417 244.797c0-1.724 1.734-3.448 3.468-3.448h15.606c1.734 0 3.468 1.724 3.468 3.448v15.515c0 1.724-1.734 3.448-3.468 3.448s-3.468-1.724-3.468-3.448v-12.068h-12.138c-1.734 0-3.468-1.724-3.468-3.448zM255.79 167.221c0-1.724 1.734-3.448 3.468-3.448s3.468 1.724 3.468 3.448c0 1.724-1.734 3.448-3.468 3.448s-3.468-1.724-3.468-3.448zM214.173 199.975c6.936 0 12.138 5.172 12.138 12.068s-5.202 12.067-12.138 12.067c-6.936 0-12.138-5.172-12.138-12.067s5.202-12.068 12.138-12.068zM243.652 177.564v-15.515c0-1.724 1.734-3.448 3.468-3.448s3.468 1.724 3.468 3.448v12.067h12.138c1.734 0 3.468 1.724 3.468 3.448s-1.734 3.448-3.468 3.448h-15.607c-1.734 1.724-3.468 0-3.468-3.448zM427.462 81.025c0-6.896 6.938-12.067 15.607-12.067s15.607 5.172 15.607 12.067c0 6.896-6.938 12.068-15.607 12.068s-15.607-5.172-15.607-12.068zM271.397 81.025c0-6.896 6.936-12.067 15.606-12.067s15.607 5.172 15.607 12.067c0 6.896-6.938 12.068-15.607 12.068s-15.606-5.172-15.606-12.068z"></path>
</svg>
