<!-- Generated by IcoMoon.io -->
<svg version="1.1" xmlns="http://www.w3.org/2000/svg" width="834" height="1024" viewBox="0 0 834 1024">
<title></title>
<g id="icomoon-ignore">
</g>
<path d="M750.588 140.326h-94.815c-15.17-30.341-45.511-53.096-83.437-53.096h-45.511c-11.378-49.304-56.889-87.23-109.985-87.23s-98.607 37.926-109.985 87.23h-45.511c-37.926 0-68.267 22.756-83.437 53.096h-94.815c-34.133 0-64.474 30.341-64.474 64.474v754.726c0 37.926 30.341 64.474 64.474 64.474h667.496c37.926 0 64.474-30.341 64.474-64.474v-754.726c3.793-34.133-26.548-64.474-64.474-64.474zM261.344 140.326h98.607v-26.548c0-34.133 26.548-60.681 60.681-60.681s60.681 26.548 60.681 60.681v26.548h98.607c22.756 0 37.926 18.963 37.926 37.926s-18.963 37.926-37.926 37.926h-318.578c-22.756 0-37.926-18.963-37.926-37.926s15.17-37.926 37.926-37.926zM765.759 959.526c0 7.585-7.585 11.378-11.378 11.378h-671.289c-7.585 0-11.378-7.585-11.378-11.378v-754.726c0-7.585 7.585-11.378 11.378-11.378h87.23c7.585 45.511 45.511 75.852 91.022 75.852h314.785c45.511 0 83.437-34.133 91.022-75.852h87.23c7.585 0 11.378 7.585 11.378 11.378v754.726zM629.225 432.356l-174.459 174.459 174.459 174.459-37.926 37.926-174.459-174.459-170.667 170.667-37.926-37.926 174.459-174.459-174.459-170.667 37.926-37.926 174.459 174.459 174.459-174.459 34.133 37.926zM390.292 113.778c0-15.17 11.378-26.548 26.548-26.548s26.548 11.378 26.548 26.548c0 15.17-11.378 26.548-26.548 26.548s-26.548-11.378-26.548-26.548z"></path>
</svg>
