<!-- Generated by IcoMoon.io -->
<svg version="1.1" xmlns="http://www.w3.org/2000/svg" width="796" height="1024" viewBox="0 0 796 1024">
<title></title>
<g id="icomoon-ignore">
</g>
<path d="M353.842 689.826h33.417v116.961h-33.417v-116.961zM473.189 563.319h59.674v-14.322h-59.674v14.322zM291.782 804.4h33.417v-116.961h-33.417v116.961zM544.798 804.4h33.417v-116.961h-33.417v116.961zM609.244 804.4h33.419v-116.961h-33.419v116.961zM480.351 804.4h33.417v-116.961h-33.417v116.961zM418.291 804.4h33.417v-116.961h-33.417v116.961zM432.61 548.998h-59.674v14.322h59.674v-14.322zM227.334 804.4h33.417v-116.961h-33.417v116.961zM332.361 548.998h-59.674v14.322h59.674v-14.322zM72.183 933.296c-2.387-2.386-2.387-2.386-2.387-4.773v-859.301c0-4.774 2.387-7.161 7.161-7.161h639.702c4.773 0 7.159 2.387 7.159 7.161v876.009c0 2.386 0 4.773-2.386 4.773-2.386 2.386-4.773 2.386-7.162 2.386l-174.245-45.352-133.669 47.738h-4.776l-124.12-54.898-200.503 38.19c0-2.386-2.387-4.773-4.774-4.773zM84.117 918.975l193.343-38.192c0 0 0 0 2.387 0h2.387l124.122 54.901 133.669-47.738c2.386 0 2.386 0 4.773 0l167.086 42.965v-859.301h-627.765v847.365zM633.115 548.998h-59.674v14.322h59.674v-14.322zM785.879 21.484v981.035c0 7.159-2.386 11.932-9.546 16.708-4.776 2.386-9.549 4.773-11.935 4.773s-4.776 0-4.776 0l-214.824-57.287-133.669 47.738c-4.773 2.386-11.935 2.386-16.708 0l-124.122-54.898-236.308 45.352c-7.161 2.386-11.935 0-16.709-4.776-4.774-4.773-7.161-11.932-7.161-16.708v-961.938c0-11.935 9.548-21.483 21.483-21.483h732.792c11.935 0 21.481 9.548 21.481 21.483zM742.913 42.965h-689.825v914.198l217.212-40.576c4.774 0 9.548 0 11.935 2.386l121.736 52.511 131.28-47.738c2.389 0 4.776-2.386 7.162-2.386s4.773 0 4.773 0l193.343 50.125v-928.52h2.386zM165.274 804.4h33.417v-116.961h-33.417v116.961zM232.108 548.998h-59.674v14.322h59.674v-14.322zM282.234 391.458c-23.869-26.254-40.578-59.674-42.965-97.863 0-2.386 0-4.776 0-7.162 0-28.642 9.548-57.286 23.869-81.155 14.322-26.256 40.579-47.739 66.836-59.674 19.095-11.935 45.352-16.709 69.22-16.709 21.484 0 42.965 2.387 59.674 9.548 28.644 11.935 54.901 28.644 71.609 52.513 19.095 26.256 33.417 59.674 35.803 95.477 0 4.776 0 11.935 0 16.708-4.773 31.033-16.708 59.674-38.19 83.544-21.484 26.257-52.514 42.965-83.544 52.514-11.935 2.386-26.257 4.773-42.965 4.773-21.481 0-45.352-4.773-64.447-11.935-21.481-9.549-40.579-23.871-54.9-40.579zM382.485 393.847l-4.773-38.192-50.128-33.417-28.644 9.546-11.933 40.579 2.387 2.386 62.061 42.965h2.386l28.644-23.868zM430.224 417.715l64.449-45.352-16.708-42.965-42.965-9.546-50.128 33.417 4.776 40.579 40.576 23.868zM501.833 386.685c-2.386 0-2.386-2.386-2.386-2.386l-2.386-4.773-57.287 40.576c23.871-7.159 45.352-19.095 62.060-33.417zM501.833 226.76l19.095 54.9h2.389c0 0 2.386 0 4.773 0l14.322 9.549c0-2.389 0-4.776 0-7.162 0-28.643-7.162-54.9-21.484-76.382l-9.546 16.709c0 2.387 0 2.387-4.776 2.387h-4.773zM446.932 221.986l-28.641 35.804 21.481 57.286 38.192 7.162 40.576-33.419-19.095-59.672-52.514-7.161zM341.907 157.538l14.322 11.935c2.386 2.387 2.386 2.387 2.386 4.774h73.995l-2.386-16.709c0-2.387 0-4.774 2.386-4.774l2.389-2.387c-9.549-2.387-21.484-4.774-35.806-4.774-19.095 0-38.19 4.774-57.287 11.935zM332.361 224.373l16.708 28.643h62.060c2.386 0 2.386 0 2.386 0l26.257-33.417v-2.387l-7.162-38.191h-76.382l-23.868 45.352zM253.591 298.368l23.869-73.995h-4.774c-9.548 16.709-14.322 38.191-14.322 62.060-2.387 2.386-2.387 7.162-4.774 11.935zM260.751 300.754l38.19 26.257 26.257-9.549c0-2.386 0-2.386 0-2.386l19.098-57.286-16.711-28.644-42.964-4.774-23.869 76.382z"></path>
</svg>
