<!-- Generated by IcoMoon.io -->
<svg version="1.1" xmlns="http://www.w3.org/2000/svg" width="1024" height="1024" viewBox="0 0 1024 1024">
<title></title>
<g id="icomoon-ignore">
</g>
<path d="M512 0c-281.6 0-512 230.4-512 512s230.4 512 512 512c281.6 0 512-230.4 512-512s-230.4-512-512-512zM552.96 732.16h-92.16v-92.16h92.16v92.16zM660.48 445.44c-10.24 15.36-35.84 40.96-71.68 71.68-20.48 15.36-30.72 30.72-35.84 40.96s-5.12 25.6-5.12 51.2h-81.92c0-10.24 0-20.48 0-20.48 0-25.6 5.12-51.2 15.36-66.56s25.6-35.84 51.2-56.32c25.6-20.48 40.96-35.84 46.080-40.96 10.24-10.24 10.24-20.48 10.24-35.84s-5.12-30.72-20.48-46.080c-15.36-10.24-30.72-20.48-56.32-20.48s-40.96 5.12-56.32 20.48c-15.36 10.24-25.6 30.72-35.84 56.32l-81.92-10.24c0-40.96 20.48-71.68 51.2-97.28s71.68-40.96 117.76-40.96c51.2 0 92.16 15.36 122.88 40.96s46.080 61.44 46.080 97.28c5.12 20.48-5.12 35.84-15.36 56.32z"></path>
</svg>
