<!-- Generated by IcoMoon.io -->
<svg version="1.1" xmlns="http://www.w3.org/2000/svg" width="1069" height="1024" viewBox="0 0 1069 1024">
<title></title>
<g id="icomoon-ignore">
</g>
<path d="M998.131 1010.146l70.877-66.050-277.592-258.708c29.53-33.025 53.156-77.061 70.873-121.097 17.721-44.036 23.626-88.067 23.626-137.609 0-55.044-11.813-110.088-35.439-159.627-23.622-49.539-53.152-93.574-94.495-132.105s-88.594-66.053-141.75-88.070c-53.156-22.017-112.216-33.026-171.278-33.026s-118.122 11.009-171.278 33.026c-53.156 22.017-100.404 49.539-141.747 88.070s-70.874 82.565-94.499 132.105c-23.625 49.539-35.437 104.583-35.437 159.627s11.813 110.087 35.437 159.626c23.625 49.539 53.156 93.575 94.499 132.104 41.343 38.533 88.591 66.054 141.747 88.072s112.217 33.025 171.278 33.025c53.154 0 100.405-5.504 147.657-22.018 47.247-16.51 88.59-38.528 129.933-66.050l277.587 258.704zM578.798 723.921c-41.343 16.51-88.594 27.521-135.845 27.521s-88.591-11.012-135.841-27.521c-41.343-16.515-76.779-38.533-112.217-66.054-29.53-27.521-53.156-60.546-70.874-104.582-17.719-38.533-29.531-82.568-29.531-126.601 0-44.035 11.812-82.565 29.531-126.601 17.718-38.531 41.344-71.557 70.874-104.583 29.531-27.522 64.968-49.539 112.217-66.052 41.343-16.513 88.591-27.522 135.841-27.522s88.592 11.009 135.845 27.522c41.343 16.512 76.777 38.531 112.211 66.052 29.534 27.522 53.16 60.548 70.877 104.583 17.717 38.531 29.53 82.565 29.53 126.601 0 44.033-11.813 82.565-29.53 126.601-17.717 38.528-41.343 71.558-70.877 104.582-35.434 22.018-70.868 49.539-112.211 66.054z"></path>
</svg>
