<svg xmlns="http://www.w3.org/2000/svg" width="1119" height="1024"><path fill="#fff" d="M1054.155 414.092l60.991-208.65c6.421-19.261 0-38.521-9.629-54.571-12.84-12.84-32.101-22.47-51.361-22.47H867.975V60.99c0-32.1-28.89-60.991-60.991-60.991H309.432c-32.101 0-60.991 28.89-60.991 60.991v67.411H62.26c-19.26 0-38.52 9.63-48.15 25.68-12.84 12.84-16.05 35.31-9.63 51.361l60.991 208.65L4.48 622.742c-6.42 19.261 0 38.521 9.63 54.572 12.84 16.05 28.89 25.68 48.15 25.68h186.181v35.311c0 32.101 28.89 60.991 60.991 60.991h497.552c32.101 0 60.991-28.89 60.991-60.991v-41.732h186.181c19.261 0 38.521-9.629 48.151-25.68 12.84-16.05 16.05-35.311 9.629-54.57l-57.78-202.231z"/><path fill="#653334" d="M1022.062 414.094l60.991-215.071c3.21-9.631 0-19.261-3.21-25.681s-16.05-12.84-25.68-12.84H835.881V60.991a28.77 28.77 0 0 0-28.89-28.89H309.439a28.772 28.772 0 0 0-28.892 28.89v99.511H62.267c-9.63 0-16.05 6.42-22.47 12.84s-6.42 16.05-6.42 25.681l64.201 215.071-64.201 215.071c-3.21 9.629 0 19.259 3.21 25.68s12.84 12.84 22.47 12.84h218.282v70.62a28.772 28.772 0 0 0 28.89 28.892h497.552a28.772 28.772 0 0 0 28.89-28.892v-73.83h218.282c9.629 0 16.05-3.209 22.471-12.84 6.419-9.629 6.419-16.05 3.209-25.68l-54.57-211.861zm-186.181-150.87h166.92l-38.519 141.239v16.05l41.73 141.241H835.881V263.223zm179.76-44.94l-6.419 25.68H835.881v-25.68h179.76zM155.358 404.463l-41.73-141.239h166.92v301.741h-166.92l41.73-141.241v-19.261zm125.189-186.179v25.68h-173.34l-6.42-25.68h179.76zm-179.76 391.622l6.42-25.68h173.34v25.68h-179.76zm677.314 99.509H338.329V89.882h439.772v619.533zm57.78-99.509v-25.68h173.341l6.419 25.68h-179.76z"/><path fill="#653334" d="M469.933 301.741l12.842 57.782 44.94-12.84v202.23h73.83V279.272h-54.572l-77.041 22.469zM113.621 863.496h35.31v60.991h64.202v-60.991h35.309v157.291h-35.309v-64.201h-64.202v64.201h-35.31V863.496zm173.332 0h35.311v157.291h-35.311V863.496zm147.676 160.502c-12.84 0-22.471-3.21-32.101-6.421-9.631-3.209-19.261-9.629-25.682-16.05-6.419-6.419-12.84-16.05-16.048-25.68-3.21-9.629-6.421-19.261-6.421-32.101 0-9.629 3.21-22.469 6.421-32.101 3.209-9.629 9.629-19.261 16.048-25.68 6.421-6.421 16.05-12.84 25.682-16.05 9.629-3.21 22.469-6.421 32.101-6.421h19.259c6.421 0 9.631 3.21 16.05 3.21 6.421 3.21 9.631 3.21 12.842 6.421 3.209 3.21 9.629 6.419 12.84 9.629l-22.471 25.68c-3.21-3.209-6.419-3.209-9.629-6.419 0-3.21-3.21-3.21-6.421-3.21s-6.419-3.21-9.629-3.21h-12.84c-6.421 0-12.84 0-16.05 3.21s-9.631 6.421-12.84 9.629c-3.21 3.21-6.421 9.631-9.631 16.05-3.21 6.421-3.21 12.842-3.21 19.261 0 6.421 0 12.84 3.21 19.261 3.21 6.419 6.421 12.84 9.631 16.05s9.629 6.419 16.05 9.629c6.419 3.21 12.84 3.21 19.259 3.21 12.84 0 22.471-3.21 32.101-9.629v-22.471h-35.311v-28.89h67.411v67.411c-9.629 6.419-19.261 12.84-28.89 16.05s-25.68 9.629-41.73 9.629zm99.509-160.502h35.311v60.991h64.199v-60.991h35.311v157.291h-35.311v-64.201h-64.199v64.201h-35.311V863.496zm173.331 0H826.24v32.101h-86.67v32.101h73.83v32.101h-73.83V991.9h86.67v32.101H707.469V863.499zm150.883 0h70.622c19.261 0 35.309 6.421 44.94 16.05 9.629 9.631 12.84 22.471 12.84 35.311s-3.21 22.471-9.629 32.101c-6.421 6.419-12.84 12.84-25.682 16.05l38.521 57.78h-41.73l-35.311-51.361h-25.682v51.361h-35.309V863.497h6.419zm67.412 77.04c9.629 0 16.05-3.209 19.261-6.419s6.419-9.631 6.419-16.05c0-6.421-3.209-12.84-6.419-16.05s-12.84-6.421-19.261-6.421h-35.311v44.94h35.311z"/></svg>