<svg xmlns="http://www.w3.org/2000/svg" width="1119" height="1024"><path fill="#fff" d="M1054.157 414.092l60.991-208.651c6.421-19.261 0-38.521-9.629-54.571-12.84-12.84-32.101-22.47-51.361-22.47H867.976V60.989c0-32.1-28.89-60.991-60.991-60.991H309.431c-32.101 0-60.991 28.89-60.991 60.991V128.4H62.258c-19.26 0-38.52 9.63-48.15 25.68-12.84 12.84-16.05 35.31-9.63 51.361l60.991 208.651L4.478 622.743c-6.42 19.261 0 38.521 9.63 54.572 12.84 16.05 28.89 25.68 48.15 25.68H248.44v35.311c0 32.101 28.89 60.991 60.991 60.991h497.554c32.101 0 60.991-28.89 60.991-60.991v-41.732h186.182c19.261 0 38.521-9.629 48.151-25.68 12.84-16.05 16.05-35.311 9.629-54.57l-57.78-202.232z"/><path fill="#064e51" d="M1022.064 414.094l60.991-215.072c3.21-9.631 0-19.26-3.21-25.681s-16.05-12.84-25.68-12.84H835.882V60.99a28.77 28.77 0 0 0-28.89-28.89H309.438a28.772 28.772 0 0 0-28.892 28.89v99.511H62.265c-9.63 0-16.05 6.42-22.47 12.84s-6.42 16.05-6.42 25.681l64.201 215.072-64.201 215.072c-3.21 9.629 0 19.259 3.21 25.68s12.84 12.84 22.47 12.84h218.283v70.622a28.77 28.77 0 0 0 28.89 28.89h497.554a28.77 28.77 0 0 0 28.89-28.89v-73.832h218.283c9.631 0 16.05-3.209 22.471-12.84 6.419-9.629 6.419-16.05 3.209-25.68l-54.57-211.862zM835.882 263.223h166.921l-38.519 141.24v16.05l41.73 141.242H835.882V263.223zm179.761-44.94l-6.419 25.68H835.882v-25.68h179.761zm-860.287 186.18l-41.73-141.24h166.921v301.742H113.626l41.73-141.242v-19.261zm125.19-186.18v25.68H107.205l-6.42-25.68h179.761zM100.785 609.906l6.42-25.68h173.341v25.68H100.785zm677.317 99.51H338.328V89.881h439.774v619.535zm57.78-99.51v-25.68h173.342l6.419 25.68H835.882z"/><path fill="#064e51" d="M640.067 414.092c-6.421-6.419-12.84-9.629-22.469-16.05-9.631-3.21-16.05-6.419-25.682-9.629l64.201-54.572v-54.57H460.305v60.991h102.72l-60.991 54.57 9.629 38.521h32.101c12.84 0 25.682 3.21 32.101 6.419 6.421 6.421 12.84 12.842 12.84 19.261 0 9.631-3.209 16.05-9.629 19.261-6.421 6.419-16.05 6.421-25.68 6.421-12.84 0-22.471-3.21-35.311-9.631-9.629-6.419-19.261-12.84-28.89-22.469l-48.151 48.149c12.84 16.05 28.89 25.682 48.151 35.311 19.261 9.631 41.73 12.84 67.41 12.84 16.05 0 28.892-3.209 41.732-6.419s22.469-9.631 32.101-19.261c9.629-9.629 16.05-16.05 22.469-28.89 6.421-9.631 6.421-22.471 6.421-38.521 0-12.84-3.21-22.469-6.421-28.89-3.21 0-6.419-6.419-12.84-12.84zM113.619 863.497H232.39v32.101h-83.46v32.101h73.831V959.8H148.93v32.101h86.671v32.101H113.62V863.499zm192.59 77.041l-51.361-77.041h41.73l32.101 51.361 32.101-51.361h38.521l-51.361 77.041 54.57 80.251h-41.73l-35.311-54.57-35.309 54.57h-38.521l54.572-80.251zm121.984-77.041h64.201c9.629 0 19.259 0 25.68 3.21 6.419 3.21 12.84 6.421 19.261 9.629 6.419 3.21 9.629 9.631 12.84 16.05 3.21 6.421 3.21 12.842 3.21 22.471s-3.21 16.05-6.421 22.471c-3.21 6.419-6.421 12.84-12.84 16.048-6.421 3.21-12.84 9.631-19.261 9.631-6.421 3.21-16.05 3.21-25.68 3.21h-25.682v48.149h-35.309V863.495zm60.991 80.252c9.629 0 16.05-3.21 19.259-6.419 3.21-3.21 6.421-9.631 6.421-16.05 0-6.421-3.21-12.842-6.421-19.261-6.419-3.21-12.84-6.421-19.259-6.421h-25.682v48.151h25.682zm89.898-80.252h118.771v32.101h-86.67v32.101h73.83V959.8h-73.83v32.101h86.67v32.101H579.082V863.499zm150.865 0h70.62c19.261 0 35.311 6.421 44.94 16.05 9.629 9.631 12.84 22.471 12.84 35.311s-3.21 22.471-9.629 32.101c-6.421 6.419-12.84 12.84-25.682 16.05l38.521 57.78h-41.73l-35.311-51.361h-25.68v51.361h-35.311V863.497h6.421zm67.41 77.041c9.629 0 16.05-3.209 19.261-6.419s6.419-9.631 6.419-16.05c0-6.421-3.209-12.84-6.419-16.05s-12.84-6.421-19.261-6.421h-35.311v44.94h35.311zm131.597-44.94h-48.151v-32.101h131.612v32.101h-48.151v125.192h-35.311V895.598z"/></svg>