<svg xmlns="http://www.w3.org/2000/svg" width="1119" height="1024"><path fill="#ad336b" d="M635.172 279.277h-77.38L419.148 446.198l12.897 51.361H564.24v51.361h74.158v-51.361h35.466v-54.57h-35.466V279.276h-3.226zM561.015 442.99H496.53l64.485-77.041v77.041z"/><path fill="#fff" d="M1057.555 414.094l61.26-208.651c6.449-19.261 0-38.521-9.673-54.571-12.897-12.84-32.243-22.47-51.587-22.47H870.548V60.991c0-32.1-29.019-60.991-61.262-60.991H309.528c-32.243 0-61.262 28.89-61.262 60.991v67.411H61.26c-19.346 0-38.691 9.63-48.364 25.68-12.897 12.84-16.121 35.31-9.673 51.361l61.261 208.651L3.223 622.745c-6.449 19.261 0 38.521 9.673 54.572 12.897 16.05 29.018 25.68 48.364 25.68h187.006v35.311c0 32.101 29.019 60.991 61.262 60.991h499.758c32.243 0 61.262-28.89 61.262-60.991v-41.732h187.007c19.344 0 38.69-9.629 48.363-25.68 12.897-16.05 16.12-35.311 9.673-54.57l-58.036-202.232z"/><path fill="#ad336b" d="M1025.312 414.096l61.26-215.072c3.226-9.631 0-19.261-3.224-25.681s-16.12-12.84-25.793-12.84h-219.25V60.992c0-16.05-12.897-28.89-29.017-28.89H309.529c-16.122 0-29.019 12.84-29.019 28.89v99.511H61.262c-9.673 0-16.121 6.42-22.57 12.84s-6.449 16.05-6.449 25.681l64.485 215.072-64.485 215.072c-3.224 9.629 0 19.259 3.224 25.68s12.897 12.84 22.57 12.84h219.249v70.62c0 16.05 12.897 28.892 29.019 28.892h499.758c16.122 0 29.019-12.842 29.019-28.892v-73.83h219.248c9.673 0 16.122-3.209 22.57-12.84 6.449-9.629 6.449-16.05 3.226-25.68l-54.812-211.862zM838.305 263.225h167.661l-38.69 141.24v16.05l41.914 141.242H838.305V263.225zm180.558-44.94l-6.447 25.68h-174.11v-25.68h180.558zm-864.098 186.18l-41.915-141.24h167.66v301.742H112.85l41.915-141.242v-19.261zm125.745-186.18v25.68H106.401l-6.448-25.68H280.51zM99.952 609.908l6.448-25.68h174.109v25.68H99.952zm680.317 99.51H338.546V89.883h441.723v619.535zm58.036-99.51v-25.68h174.11l6.447 25.68H838.304z"/><path fill="#ad336b" d="M635.172 279.269h-77.38L419.148 446.19l12.897 51.359H564.24v51.361h74.158v-51.361h35.466v-54.57h-35.466V279.268h-3.226zm-74.157 163.712H496.53l64.485-77.041v77.041zM80.611 863.499h38.691l38.691 67.411 41.914-67.411h38.692v157.292h-35.466v-102.72l-45.14 67.41-45.14-67.41v102.72H80.611V863.499zm248.266 0h32.243l67.709 157.292h-35.468l-12.897-35.311h-67.709l-12.897 35.311h-38.69l67.709-157.292zm38.69 93.091l-22.57-51.359-22.57 51.359h45.139zm141.865 67.408c-12.899 0-22.572-3.21-35.468-6.419-12.897-3.21-22.57-9.631-32.243-19.261l19.346-25.68c6.449 6.419 16.122 9.629 22.57 12.84 6.449 3.21 16.122 6.419 25.795 6.419 6.447 0 12.897 0 16.12-3.209 3.224-3.21 6.449-6.421 6.449-9.631v-6.419c0-3.209-3.226-3.21-3.226-6.421-3.224 0-6.447-3.21-9.673-3.21-3.224 0-9.671-3.21-16.12-3.21-6.449-3.209-16.122-3.209-22.57-6.419-6.449-3.21-12.897-6.421-16.122-9.629-3.224-3.21-6.447-6.421-9.671-12.842-3.226-6.419-3.226-12.84-3.226-22.469 0-6.421 0-12.84 3.226-19.261 3.224-6.419 6.447-9.629 12.897-16.05 6.447-3.21 9.673-6.419 16.12-9.629 6.449-3.21 12.897-3.21 22.57-3.21 12.897 0 22.57 3.21 32.243 6.421 9.673 3.209 19.346 9.629 25.793 16.05l-19.344 25.68c-6.449-3.21-12.897-9.631-19.346-12.84s-12.897-3.21-19.346-3.21c-6.447 0-12.897 0-16.12 3.21-3.226 3.209-6.449 6.419-6.449 9.629v6.421c0 3.209 3.224 3.209 6.449 6.419 3.224 3.21 6.447 3.21 9.673 3.21 3.224 0 9.673 3.21 16.12 3.21 6.449 3.21 16.122 3.21 22.57 6.419 6.449 3.21 12.897 6.421 16.122 9.631s6.447 6.419 9.671 12.84c3.226 6.419 3.226 9.629 3.226 19.261 0 6.419 0 16.05-3.226 19.259-3.224 6.421-6.447 9.631-12.897 16.05-6.447 3.21-9.673 6.421-19.344 9.631-3.226 3.209-12.899 6.419-22.57 6.419zM635.178 895.6h-48.363v-32.101H719.01V895.6h-48.363v125.192h-35.468V895.6zm109.636-32.101h119.298V895.6h-83.83v32.101h74.157v32.101h-74.157v32.101h87.053v32.101H748.039V863.501h-3.226zm151.543 0h70.933c19.346 0 35.466 6.421 45.139 16.05 9.673 9.631 12.897 22.471 12.897 35.311s-3.224 22.471-9.673 32.101c-6.447 6.419-12.897 12.84-25.793 16.05l38.69 57.78h-41.914L951.17 969.43h-25.795v51.361h-35.466V863.499h6.449zm70.932 77.041c9.673 0 16.12-3.209 19.346-6.419 3.224-3.21 6.447-9.631 6.447-16.05 0-6.421-3.224-12.84-6.447-16.05-3.226-3.21-12.897-6.421-19.346-6.421h-35.466v44.94h35.466z"/></svg>