<svg xmlns="http://www.w3.org/2000/svg" width="1119" height="1024"><path fill="#fff" d="M1054.157 414.094l60.991-208.651c6.421-19.261 0-38.521-9.629-54.571-12.84-12.84-32.101-22.47-51.361-22.47H867.976V60.991c0-32.1-28.89-60.991-60.991-60.991H309.431C277.33 0 248.44 28.89 248.44 60.991v67.411H62.258c-19.26 0-38.52 9.63-48.15 25.68-12.84 12.84-16.05 35.31-9.63 51.361l60.991 208.651L4.478 622.745c-6.42 19.261 0 38.521 9.63 54.572 12.84 16.05 28.89 25.68 48.15 25.68H248.44v35.311c0 32.101 28.89 60.991 60.991 60.991h497.554c32.101 0 60.991-28.89 60.991-60.991v-41.732h186.182c19.261 0 38.521-9.629 48.151-25.68 12.84-16.05 16.05-35.311 9.629-54.57l-57.78-202.232z"/><path fill="#e66569" d="M1022.064 414.096l60.991-215.072c3.21-9.631 0-19.261-3.21-25.681s-16.05-12.84-25.68-12.84H835.882V60.992a28.77 28.77 0 0 0-28.89-28.89H309.438a28.772 28.772 0 0 0-28.892 28.89v99.511H62.265c-9.63 0-16.05 6.42-22.47 12.84s-6.42 16.05-6.42 25.681l64.201 215.072-64.201 215.072c-3.21 9.629 0 19.259 3.21 25.68s12.84 12.84 22.47 12.84h218.283v70.62a28.772 28.772 0 0 0 28.89 28.892h497.554a28.772 28.772 0 0 0 28.89-28.892v-73.83h218.283c9.629 0 16.05-3.209 22.471-12.84 6.419-9.629 6.419-16.05 3.209-25.68l-54.57-211.862zM835.882 263.225h166.921l-38.519 141.24v16.05l41.73 141.242H835.882V263.225zm179.761-44.94l-6.419 25.68H835.882v-25.68h179.761zm-860.287 186.18l-41.73-141.24h166.921v301.742H113.626l41.73-141.242v-19.261zm125.19-186.18v25.68H107.205l-6.42-25.68h179.761zM100.785 609.908l6.42-25.68h173.341v25.68H100.785zm677.317 99.51H338.328V89.882h439.774v619.536zm57.78-99.51v-25.68h173.342l6.419 25.68H835.882z"/><path fill="#e66569" d="M595.121 455.824c9.629-6.419 19.259-12.84 25.68-19.259 6.421-6.421 12.84-12.842 19.261-22.471 6.419-6.419 9.629-16.05 12.84-22.469 3.21-9.631 3.21-19.261 3.21-28.892 0-12.84-3.21-25.68-6.421-35.309-3.21-9.631-12.84-19.261-19.261-25.682-9.629-6.419-19.259-12.84-32.101-16.048-12.84-3.21-25.68-6.421-41.73-6.421-12.84 0-25.68 0-35.311 3.21l-28.89 9.629c-9.629 6.421-16.05 9.629-25.68 19.261-6.421 6.419-16.05 16.05-22.469 25.68l51.359 41.73c9.631-12.84 19.261-22.469 28.89-25.68 9.631-6.419 16.05-9.629 25.682-9.629 9.629 0 16.05 3.21 22.469 6.419 6.421 6.421 9.631 12.84 9.631 19.261 0 9.629-3.21 16.05-6.421 22.471-6.421 6.419-12.84 16.05-25.68 25.68l-99.512 77.041v57.78h211.862v-60.991h-112.35l44.94-35.311zm-426.925 568.174c-12.84 0-22.47-3.209-35.31-6.419s-22.47-9.631-32.1-19.261l19.26-25.68c6.42 6.419 16.05 9.629 22.47 12.84s16.05 6.419 25.68 6.419c6.42 0 12.84 0 16.05-3.209 6.42-3.21 9.629-6.421 9.629-9.631v-6.419c0-3.209-3.209-3.21-3.209-6.421-3.21 0-6.42-3.21-9.63-3.21s-12.84-3.209-19.26-6.419c-6.42-3.21-16.05-3.21-22.47-6.421s-12.84-6.419-16.05-9.629c-3.21-3.21-6.42-6.421-9.63-12.84-3.21-6.421-3.21-12.842-3.21-19.261 0-6.421 0-12.84 3.21-19.261 3.21-6.419 6.42-9.629 12.84-16.05 3.21-3.21 9.63-6.419 16.05-9.629s12.84-3.21 22.47-3.21c12.84 0 22.47 3.21 32.1 6.421 9.631 3.209 19.261 9.629 25.68 16.05l-19.259 25.68c-6.421-3.21-12.841-9.631-19.261-12.84s-12.84-3.21-19.26-3.21-12.84 0-16.05 3.21c-3.21 3.209-6.42 6.419-6.42 9.629v6.421c0 3.209 3.21 3.209 6.42 6.419s6.42 3.21 9.63 3.21c3.21 0 9.63 3.21 16.05 3.21 6.42 3.21 16.05 3.21 22.47 6.419 6.421 3.21 12.84 6.421 16.05 9.631s6.421 6.419 9.629 12.84c3.21 6.421 3.21 12.84 3.21 19.261 0 6.419 0 16.05-3.21 19.259-3.209 6.421-6.419 9.631-12.84 16.05-6.419 3.21-9.629 6.421-19.26 9.631-6.42 3.21-12.84 6.419-22.47 6.419zm89.886-160.502h118.771v32.101h-86.67v32.101h73.83v32.101h-73.83v32.099h86.67v32.101H258.082V863.498zm150.877 0h32.099l73.832 96.302v-96.302h32.101v157.292h-28.892l-77.041-99.512v99.512h-35.309V863.496h3.21zm176.549 0h35.309v157.292h-35.309V863.496zm150.862 160.5c-12.84 0-22.471-3.209-32.101-6.419s-19.261-9.631-25.68-16.05c-6.421-6.421-12.842-16.05-16.05-25.68-3.21-9.631-6.421-19.261-6.421-32.101 0-9.631 3.21-22.471 6.421-32.101 3.209-9.631 9.629-19.261 16.05-25.682 6.419-6.419 16.05-12.84 25.68-16.05s22.469-6.419 32.101-6.419c12.84 0 22.469 3.21 32.101 6.419 9.629 3.21 19.259 9.631 25.68 16.05 6.421 6.421 12.84 16.05 16.05 25.682 3.21 9.629 6.421 19.259 6.421 32.101 0 12.84-3.21 22.469-6.421 32.101-3.21 9.629-9.629 19.259-16.05 25.68-6.421 6.419-16.05 12.84-25.68 16.05s-19.261 6.419-32.101 6.419zm0-32.1c6.419 0 12.84 0 19.261-3.209 6.419-3.21 9.629-6.421 16.048-9.631 3.21-3.209 6.421-9.629 9.631-16.05 3.21-6.419 3.21-12.84 3.21-19.259 0-6.421 0-12.842-3.21-19.261-3.21-6.421-6.421-9.629-9.631-16.05-3.209-3.21-9.629-9.629-16.048-9.629-6.421-3.21-12.842-3.21-19.261-3.21-6.421 0-12.84 0-19.261 3.21-6.421 3.209-9.629 6.419-16.05 9.629-3.21 3.21-6.419 9.629-9.629 16.05-3.21 6.419-3.21 12.84-3.21 19.261 0 6.419 0 12.84 3.21 19.259 3.21 6.421 6.419 12.842 9.629 16.05 3.21 3.21 9.629 9.631 16.05 9.631 6.421 3.209 12.84 3.209 19.261 3.209zm115.558-128.4h70.62c19.261 0 35.311 6.419 44.94 16.05 9.629 9.629 12.84 22.469 12.84 35.311 0 12.84-3.21 22.469-9.629 32.099-6.421 6.421-12.84 12.842-25.68 16.05l38.519 57.782h-41.73l-35.311-51.361h-25.68v51.361h-35.311V863.496h6.421zm70.62 77.04c9.629 0 16.05-3.21 19.261-6.421 3.21-3.209 6.419-9.629 6.419-16.05 0-6.419-3.209-12.84-6.419-16.05s-12.84-6.419-19.261-6.419h-35.311v44.94h35.311z"/></svg>