<svg width="163" height="34" fill="none" xmlns="http://www.w3.org/2000/svg"><path d="M9.131 8.837c-.968-.346-1.66-.553-2.075-.692-.415-.069-.83-.138-1.245-.138-.83 0-1.591.208-2.145.623-.691.484-1.037 1.176-1.037 2.006 0 .76.276 1.245.83 1.66.207.138.484.277.692.346.207.07.83.207 1.798.484 1.522.346 2.698.969 3.39 1.73a4.41 4.41 0 0 1 1.176 3.043c0 1.522-.554 2.767-1.66 3.805-1.107 1.038-2.49 1.522-4.29 1.522-1.175 0-2.628-.277-4.357-.83v-2.837c1.798.761 3.182 1.176 4.22 1.176 1.037 0 1.798-.276 2.42-.76.623-.485.969-1.107.969-1.937 0-.761-.277-1.245-.761-1.591-.346-.208-1.038-.485-2.144-.761a12.172 12.172 0 0 1-2.214-.692 5.26 5.26 0 0 1-1.314-.83A5.54 5.54 0 0 1 .346 12.71C.069 12.088 0 11.466 0 10.774A4.97 4.97 0 0 1 .9 7.87c1.037-1.522 2.628-2.352 4.772-2.352 1.176 0 2.352.207 3.46.553v2.767zm3.252 3.113h2.49v5.258c0 1.106.138 1.937.415 2.42.138.277.415.485.692.623.346.139.622.277.968.277s.623-.07.969-.277c.345-.207.553-.415.691-.622.277-.415.415-1.176.415-2.214V12.02h2.49v6.088c0 1.314-.345 2.352-1.037 3.182-.415.553-.968.9-1.59 1.245a4.962 4.962 0 0 1-2.007.415c-1.453 0-2.629-.553-3.528-1.59-.415-.485-.692-.9-.83-1.454-.139-.484-.208-1.176-.208-2.006v-5.95h.07zm11.552 16.88V18.383c0-1.107.069-1.937.207-2.49a5.661 5.661 0 0 1 .692-1.661c.553-.83 1.245-1.453 2.214-1.937.76-.415 1.59-.553 2.42-.553 1.523 0 2.837.553 3.944 1.66 1.107 1.107 1.66 2.421 1.66 3.943a5.511 5.511 0 0 1-1.038 3.251c-.622.9-1.521 1.522-2.559 1.937-.623.208-1.245.346-1.868.346-1.107 0-2.144-.346-3.182-1.107v7.056h-2.49zm5.534-14.597c-.9 0-1.591.346-2.214.968-.553.623-.83 1.315-.83 2.145 0 .968.346 1.798.969 2.352.553.553 1.245.76 2.075.76.968 0 1.798-.345 2.352-1.037.484-.622.76-1.314.76-2.075 0-.969-.345-1.73-1.106-2.352a3.014 3.014 0 0 0-2.006-.761zm17.778 5.05c-.276.692-.622 1.314-1.037 1.798-.554.554-1.176 1.038-1.868 1.384a5.125 5.125 0 0 1-2.214.484c-1.453 0-2.698-.484-3.735-1.522-1.176-1.107-1.799-2.49-1.799-4.081 0-.761.139-1.591.484-2.283a5.714 5.714 0 0 1 1.453-1.937c1.038-.9 2.214-1.383 3.597-1.383 1.522 0 2.836.553 3.943 1.66.415.415.761.968 1.038 1.522.277.553.415 1.037.415 1.522 0 .622-.208 1.176-.692 1.521-.207.208-.484.277-.76.346-.278.07-.693.07-1.315.07h-5.534c.207.622.622 1.106 1.107 1.521.553.346 1.176.554 1.798.554 1.038 0 1.868-.415 2.49-1.176h2.63zm-2.283-3.113c-.207-.623-.553-1.038-1.106-1.453-.554-.346-1.107-.553-1.799-.553s-1.245.207-1.799.553c-.484.346-.899.83-1.175 1.453h5.88zm6.918 6.64h-2.49v-6.363c0-1.522.415-2.698 1.245-3.46.76-.76 1.798-1.106 3.044-1.106h.622v2.421c-.9.07-1.522.277-1.867.692-.346.415-.485 1.107-.485 2.144v5.673h-.069zm12.59-13.973c-.968-.346-1.66-.553-2.075-.692-.415-.069-.83-.138-1.245-.138-.83 0-1.591.208-2.145.623-.692.484-1.038 1.176-1.038 2.006 0 .76.277 1.245.83 1.66.208.138.485.277.692.346.208.07.83.207 1.799.484 1.522.346 2.698.969 3.39 1.73a4.41 4.41 0 0 1 1.176 3.043c0 1.522-.554 2.767-1.66 3.805-1.107 1.038-2.491 1.522-4.29 1.522-1.176 0-2.628-.277-4.358-.83v-2.837c1.799.761 3.182 1.176 4.22 1.176 1.038 0 1.799-.276 2.421-.76.623-.485.969-1.107.969-1.937 0-.761-.277-1.245-.761-1.591-.346-.208-1.038-.485-2.145-.761a12.172 12.172 0 0 1-2.213-.692 5.26 5.26 0 0 1-1.315-.83c-.415-.415-.76-.9-1.037-1.453-.277-.623-.346-1.245-.346-1.937a4.96 4.96 0 0 1 .9-2.905c1.037-1.522 2.628-2.352 4.772-2.352 1.176 0 2.352.207 3.459.553v2.767zM74.64 22.81h-.552c-1.176 0-2.007 0-2.352-.068-.346-.07-.761-.139-1.246-.346-1.037-.415-1.867-1.107-2.56-2.145-.553-.83-.83-1.798-.83-2.836 0-1.453.485-2.698 1.384-3.735.969-1.038 2.214-1.66 3.736-1.73h2.352v2.421c-1.384 0-2.283.07-2.767.208-.623.138-1.107.415-1.453.9a3.014 3.014 0 0 0-.761 2.005c0 .9.346 1.66 1.038 2.214.346.277.691.484 1.106.553.416.07 1.038.139 1.8.139h1.037v2.42h.069z" fill="#2D282F"/><path d="M81.49 11.812c1.521 0 2.836.553 3.942 1.66 1.107 1.107 1.66 2.421 1.66 4.012 0 .969-.276 1.937-.83 2.836a6.18 6.18 0 0 1-2.213 2.006c-.83.416-1.73.623-2.629.623-1.59 0-2.975-.553-4.081-1.73-1.038-1.106-1.591-2.351-1.591-3.873 0-1.799.691-3.251 2.144-4.358 1.107-.761 2.283-1.176 3.597-1.176zm0 2.421a3.1 3.1 0 0 0-2.353 1.038c-.553.553-.76 1.245-.76 2.075 0 .9.345 1.66.968 2.283.622.553 1.314.83 2.144.83.969 0 1.73-.346 2.421-1.107a3.014 3.014 0 0 0 .761-2.006c0-.969-.346-1.73-1.037-2.352-.623-.484-1.315-.761-2.145-.761z" fill="#F08927"/><path d="M102.311 22.81h-2.49v-6.57c0-1.315-.484-2.007-1.384-2.007-.484 0-.83.138-1.106.484-.277.346-.346.83-.346 1.453v6.64h-2.49v-6.57c0-1.315-.485-2.007-1.453-2.007-.969 0-1.453.622-1.453 1.868v6.71h-2.49v-6.434c0-.76.069-1.314.138-1.66.07-.415.277-.76.484-1.176.692-1.176 1.799-1.73 3.251-1.73 1.038 0 1.937.347 2.698 1.038.623-.691 1.522-1.037 2.698-1.037.9 0 1.66.277 2.352.76.554.416.969.9 1.176 1.453.208.554.346 1.315.346 2.283v6.503h.069zm15.842 0h-2.491v-6.57c0-1.315-.484-2.007-1.383-2.007-.485 0-.83.138-1.107.484s-.346.83-.346 1.453v6.64h-2.49v-6.57c0-1.315-.485-2.007-1.453-2.007-.969 0-1.453.622-1.453 1.868v6.71h-2.49v-6.434c0-.76.069-1.314.138-1.66.069-.415.277-.76.485-1.176.691-1.176 1.798-1.73 3.251-1.73a3.88 3.88 0 0 1 2.698 1.038c.622-.691 1.522-1.037 2.698-1.037.899 0 1.66.277 2.351.76.554.416.969.9 1.176 1.453.208.554.346 1.315.346 2.283v6.503h.07zm12.797-3.527c-.276.692-.622 1.314-1.037 1.798-.554.554-1.176 1.038-1.868 1.384a5.127 5.127 0 0 1-2.214.484c-1.452 0-2.698-.484-3.735-1.522-1.176-1.107-1.799-2.49-1.799-4.081 0-.761.138-1.591.484-2.283a5.71 5.71 0 0 1 1.453-1.937c1.038-.9 2.214-1.383 3.597-1.383 1.522 0 2.836.553 3.943 1.66.415.415.761.968 1.038 1.522.277.553.415 1.037.415 1.522 0 .622-.208 1.176-.692 1.521-.207.208-.484.277-.761.346-.276.07-.692.07-1.314.07h-5.534c.207.622.622 1.106 1.107 1.521.553.346 1.176.554 1.798.554 1.038 0 1.868-.415 2.491-1.176h2.628zm-2.283-3.113c-.207-.623-.553-1.038-1.106-1.453-.554-.346-1.107-.553-1.799-.553s-1.245.207-1.799.553c-.484.346-.899.83-1.176 1.453h5.88zm10.792-1.453c-.9-.553-1.799-.83-2.767-.83-.485 0-.9.07-1.245.277a.986.986 0 0 0-.416.83c0 .346.208.553.554.692.207.069.761.276 1.729.553.9.277 1.522.553 1.868.9.623.553.899 1.314.899 2.213 0 1.176-.484 2.145-1.383 2.836-.692.484-1.591.761-2.698.761-1.038 0-2.145-.207-3.251-.622v-2.56c1.314.623 2.421.9 3.32.9 1.038 0 1.591-.347 1.591-1.108 0-.345-.138-.553-.346-.691-.207-.139-.691-.346-1.522-.554-1.176-.346-1.937-.691-2.421-1.176a2.772 2.772 0 0 1-.83-2.006c0-1.037.415-1.937 1.314-2.628.692-.554 1.592-.83 2.698-.83.83 0 1.799.207 2.837.553v2.49h.069zm9.269 0c-.899-.553-1.798-.83-2.767-.83-.484 0-.899.07-1.245.277a.985.985 0 0 0-.415.83c0 .346.208.553.554.692.207.069.76.276 1.729.553.899.277 1.522.553 1.868.9.622.553.899 1.314.899 2.213 0 1.176-.484 2.145-1.384 2.836-.691.484-1.591.761-2.697.761-1.038 0-2.145-.207-3.252-.622v-2.56c1.315.623 2.421.9 3.321.9 1.037 0 1.591-.347 1.591-1.108 0-.345-.139-.553-.346-.691-.208-.139-.692-.346-1.522-.554-1.176-.346-1.937-.691-2.421-1.176a2.772 2.772 0 0 1-.83-2.006c0-1.037.415-1.937 1.314-2.628.692-.554 1.591-.83 2.698-.83.83 0 1.799.207 2.836.553v2.49h.069zm13.005 4.566c-.276.692-.622 1.314-1.037 1.798-.554.554-1.176 1.038-1.868 1.384a5.127 5.127 0 0 1-2.214.484c-1.452 0-2.697-.484-3.735-1.522-1.176-1.107-1.799-2.49-1.799-4.081 0-.761.139-1.591.485-2.283.345-.76.83-1.383 1.452-1.937 1.038-.9 2.214-1.383 3.597-1.383 1.522 0 2.837.553 3.943 1.66.415.415.761.968 1.038 1.522.277.553.415 1.037.415 1.522 0 .622-.207 1.176-.692 1.521-.207.208-.484.277-.761.346-.276.07-.691.07-1.314.07h-5.534c.208.622.623 1.106 1.107 1.521.553.346 1.176.554 1.798.554 1.038 0 1.868-.415 2.491-1.176h2.628zm-2.282-3.113c-.208-.623-.554-1.038-1.107-1.453-.554-.346-1.107-.553-1.799-.553s-1.245.207-1.798.553c-.485.346-.9.83-1.176 1.453h5.88z" fill="#2D282F"/><path d="M71.528 24.61h-3.39a.915.915 0 0 0-.899.899c0 .484.415.899.9.899h2.559v2.629c0 .484.415.899.9.899a.916.916 0 0 0 .898-.9V25.51c0-.208-.069-.485-.276-.623a.891.891 0 0 0-.692-.277z" fill="#7E7E80"/><path d="M69.176 29.175a.877.877 0 0 1-1.245 0 .877.877 0 0 1 0-1.245.877.877 0 0 1 1.245 0c.277.346.277.9 0 1.245zm-2.283 2.283a.877.877 0 0 1-1.245 0 .877.877 0 0 1 0-1.245.877.877 0 0 1 1.245 0 .876.876 0 0 1 0 1.245zM64.61 33.74a.877.877 0 0 1-1.245 0 .877.877 0 0 1 0-1.245.877.877 0 0 1 1.245 0c.346.346.346.9 0 1.246zM91.52 4.963v3.528c0 .208.069.485.276.623.139.138.415.277.623.277h3.39a.916.916 0 0 0 .899-.9.916.916 0 0 0-.9-.899H93.25V4.963a.916.916 0 0 0-.9-.899c-.483 0-.83.415-.83.9zm3.251-.207a.877.877 0 0 1 1.245 0c.346.346.346.9 0 1.245a.877.877 0 0 1-1.245 0 .877.877 0 0 1 0-1.245zm2.283-2.214a.877.877 0 0 1 1.245 0c.346.346.346.9 0 1.245a.877.877 0 0 1-1.245 0 .877.877 0 0 1 0-1.245zM99.337.26a.877.877 0 0 1 1.245 0 .876.876 0 0 1 0 1.245.877.877 0 0 1-1.245 0 .877.877 0 0 1 0-1.246zM81.42 27.722c-2.629 0-5.188-.968-7.194-2.698l-.553.692a11.878 11.878 0 0 0 7.816 2.906c2.837 0 5.604-1.038 7.817-2.906l-.553-.692c-2.145 1.73-4.704 2.698-7.333 2.698zM72.427 9.114l.692.553c2.075-2.42 5.119-3.874 8.37-3.874 3.182 0 6.226 1.384 8.37 3.874l.692-.553c-2.282-2.629-5.534-4.15-8.993-4.15-3.597-.07-6.917 1.452-9.13 4.15z" fill="#7E7E80"/><path d="M82.596 17.415c0 .623-.484 1.107-1.107 1.107a1.093 1.093 0 0 1-1.107-1.107c0-.622.485-1.107 1.107-1.107.554-.069 1.107.485 1.107 1.107z" fill="#2D282F"/></svg>