<svg width="28" height="28" fill="none" xmlns="http://www.w3.org/2000/svg"><path d="M14 28c7.732 0 14-6.268 14-14S21.732 0 14 0 0 6.268 0 14s6.268 14 14 14z" fill="#E5851C"/><path d="M7.92 18.158l9.396 9.38c4.835-1.155 8.611-4.805 10.04-9.518l-9.672-9.657-9.763 9.795z" fill="url(#paint0_linear)"/><path d="M17.73 8.363l-9.809 9.795-4.835-4.851 1.059-1.063 3.822 3.789 8.75-8.733 1.013 1.063zm2.625 2.68l-5.02 5.036-1.888-1.894-1.013 1.063 2.902 2.91 6.079-6.052-1.06-1.063zm2.671 2.68l-2.394 2.356-.691-.693-1.06 1.017 1.705 1.71 3.408-3.42-.968-.97z" fill="#fff"/><defs><linearGradient id="paint0_linear" x1="7.943" y1="17.965" x2="27.369" y2="17.965" gradientUnits="userSpaceOnUse"><stop stop-color="#DA700F"/><stop offset="1" stop-color="#DA700F" stop-opacity="0"/></linearGradient></defs></svg>