<svg width="51" height="40" fill="none" xmlns="http://www.w3.org/2000/svg"><path opacity=".5" d="M50.3 30.4v1.7H15.5v-1.7h34.8zm-25.8-7.6c-.3-1.1.9-2.2 1.5-2.6.6-.4 1.6-1 2.4-.9.1 0 .1.1.1.1v3.8s-.9.9-2 .9h-.1c-1.1 0-1.6-.4-1.9-1.3zm.3-.1c.2.7.7 1.1 1.7 1.1.8.1 1.6-.6 1.8-.7v-3.5c-.7-.1-1.5.5-2 .8-.8.5-1.7 1.5-1.5 2.3zm24.6-2.1c-1.5-.9-3.3-1.9-3.6-2.4-.3-.5-.3-1.7 1.1-2 0 0 2.1-.3 2.5 2.3l.5.1.1-2.7-.8.1s-3.1-1.6-4.5.7c0 0-1.2 2.4 1 3.7 2.2 1.2 3.4 1.7 3.4 2.5 0 0 .1 1.6-1.1 1.7 0 0-1.8.3-2.3-.8.2.5-.6-1.3-.8-1.7h-.3v2.7l1.4.1s3.3 1.4 4.5-1.4c-.1.1.4-1.9-1.1-2.9zm-32.5-4.4c.6-.5 1.7-1 2.8-.9 1 .1 2 .3 2.8 1.3.3.5.4 1 .4 1v4.9c.3-.7 1-1.5 2.4-2.5.9-.6 2.6-1.2 3.1-1.3.1-.5.2-1.3 0-1.6 0 0-.2-.9-.9-1.1-.7-.3-1.6 0-1.9.3-.2.2-.3.4-.3.5 0 0 0 .1-.1.1v.3c0 .3 0 .7-.2 1-.4.6-.8.6-1.2.5-.3-.1-.6-.4-.7-.9-.1-.4-.1-1.1.8-1.9.6-.5 1.8-1.1 2.9-.9 1 .1 2 .3 2.7 1.1l2.1-.4v1.2h.3s3.1-2.8 4.9.3l.3.1s2.4-3.3 5.1-.3v6.9s.9.6 1.4.6v.5h-4.4v-.6s1.6 0 1.6-.6V18s-.5-2.4-3.7-.3V24s.3.7 1.2.4v.6h-4.7v-.6s1.6.2 1.6-.5v-6.2s-1.1-2.1-3.5.1V24s.2.5 1.1.3v.6h-1.9c-.1.1-.7.5-1.2.4-.5 0-1.2-.2-1.6-1.2h-.4c-.9 1.1-1.9 1.4-2.5 1.4-.6 0-1.2-.2-1.6-.5-.2.1-.6.3-.9.3-.5 0-1.1-.2-1.4-1.1V24s-.5-.1-.6.1c-.2.2-1.1 1.4-2.4 1.4-1.3 0-2.3-.9-2.5-1.6-.2-.7-.3-1.9 2.4-3.8 1-.7 3.1-1.3 3.1-1.3s.3-1.4 0-1.8c0 0-.2-.9-.9-1.2-.7-.3-1.7 0-2 .3-.3.3-.3.5-.4.7-.1.2.1.9-.2 1.3-.2.4-.6.6-1 .4-.5 0-1.2-1.1.1-2.3zm4.5 7.2v-3.7c-.8-.2-1.7.4-2.3.8-.6.4-1.7 1.5-1.5 2.5.2.8.8 1.2 1.8 1.2 1.1.1 2-.8 2-.8zm1.6.4c.1.6 1.1 1.5 2.4 1.5.5 0 1.4-.2 2.2-1.3.2-.2.7-.2.8-.1.1 0 .1.1.1.1v.1c.3.8.8 1 1.3 1 .4 0 .9-.3 1-.4l.2-.3c-.8.2-1.2-.3-1.3-.4-.1-.1-.1-.2 0-4v-2.6s0-.5-.3-1c-.7-.9-1.6-1.1-2.7-1.2-1-.1-2.1.4-2.7.9-.5.5-.8 1.1-.7 1.6.1.4.3.6.5.6.3.1.6 0 .8-.4.1-.2.1-.6.1-.9v-.5c.1-.1.1-.3.4-.6.3-.3 1.4-.6 2.2-.3.7.3 1 1.1 1 1.3.3.5 0 1.8 0 1.9 0 .1 0 .1-.1.1-.2.1-2.1.7-3.1 1.3-2.5 2-2.2 3.1-2.1 3.6zm3.8-15.4v1.3l.7-1.1 1.2.4-.8-1 .7-1-1.2.4-.8-1 .1 1.3-1.2.4 1.3.3zM15.3 1.9l1-.7H15L14.6 0l-.3 1.2H13l1.1.7-.4 1.2 1-.8 1 .8-.4-1.2zm6.2 1.5l.6 1.1.1-1.3 1.3-.2-1.2-.5.2-1.3-.8 1-1.2-.5.7 1.1-.8 1 1.1-.4zM3.7 10.2L3.3 9 3 10.2H1.7l1.1.7-.4 1.2 1-.8 1 .8-.5-1.2 1-.7H3.7zm3.6-5l.5 1.2.3-1.3L9.4 5l-1.1-.6.3-1.3-1 .9-1.1-.6.5 1.1-1 .8 1.3-.1zM3.4 16.5l-1 .8-1.1-.7.5 1.2-1 .8 1.3-.1.5 1.2.3-1.3h1.3l-1.1-.7.3-1.2zm8.3 9.8v.2c0 .1 0 .1-.1.2 0 .3-.1.5-.2.5 0 .1-.2.4-.3.5-.1 0 0 .1-.1.2 0 0-.1 0 0 .1v.2s.2-.1.3 0c.1 0 .1.2.1.2 0 .1.1.3.1.4 0 .1-.1.2-.2.2-.1.1-.5.4-.9.5h-.6c.1 0 .1.1.3.2h.2s0 .1.1.1.1 0 .2.1c.1 0 0 .1-.1.1h-.1c-.1.2-.4.2-.4.1 0 0 0-.1-.1-.1l-.2-.1-.1-.1s0-.1-.1-.1l-.2-.2c-.1 0-.2-.1-.3-.2h-.3c-.1 0-.2.1-.2.2-.1 0-.4.2-.4.3-.1.1-.1.1-.2.1s-.1.1-.1.1c-.1.1-.2.1-.2.1-.1 0-.4-.1-.4-.2 0 0 .1 0 .1-.1.1 0 .1 0 .2-.1 0 0 .1 0 .1-.1.1-.1.2-.1.3-.2-.1 0-.4.1-.5.1-.5 0-1.3-.6-1.3-.7-.1-.1-.1-.2-.1-.3 0-.1.2-.4.2-.5 0-.1.2-.1.3 0 0-.1 0-.2.1-.2h.1s.2.1.2.2 0 .2-.1.3c0 0-.1.1.1.2.1.1.3.2.4.2h.3s0-.1.1-.1v-.1c0-.1-.1-.1-.2-.1s-.2-.1-.3-.1c-.1-.1-.2-.3-.3-.4-.2-.1-.6-.6-.7-.7-.1-.1-.2-.5-.2-.8v-.1s0-.1.1-.1.2.2.2.2-.2-.4-.2-.8c0-.3.1-.6.2-.8.1-.2.2-.3.2-.4h.1v.1c0-.1.1-.3.2-.4 0-.1.2-.2.2-.2.1-.1.2-.1.2-.1v.2l.1-.1s.3-.3.7-.4h.1s-.1.2-.2.2h.2v.1l-.1.1c0 .1-.1.1-.2.1 0 0-.1 0-.1.1-.1.1-.3.2-.3.2s-.1.1-.2.1c0 0-.1 0 0 .1v.1l.2-.1.1.1.2-.1v-.1l.3-.1.1.1h.2v-.1h.4v.1h.2l.1-.1.3.1v.1l.2.1.1-.1.3.2-.1.1.1.1v-.3c-.2-.3-.3-.3-.3-.3-.1 0-.1 0-.1-.1 0 0 0-.1-.1-.1l-.3-.1c-.1 0-.1-.1-.2-.1 0 0-.1 0-.2-.2 0-.1 0-.3.4-.3.2 0 .5.2.6.3 0 0 .1 0 .2.1.1 0 .2.1.2.1.1.1.2.2.3.4 0 0 0 .1.1.1h.1l.1.1c.1.1.2.2.2.3.1.1 0 .2.1.3 0 .1.1.3.1.4 0 .1.1.1.1.2 0 0 0 .1-.2.4.5-.1.6.1.7.2 0-.1 0-.1 0 0zm-2.1-2.5s.1.1.2.1h.1c0-.1-.1 0-.1-.1s0 0-.2 0v-.1.1c-.1-.1-.1-.2-.2-.1-.1 0-.1-.1-.2-.1v.1c0 .1-.1 0-.1 0-.1 0-.1.1-.1.1h.1c.1 0 .1.1.1.1s.2 0 .2.1h-.1s.1 0 .2.1h.1s0 .1.1.1V24h-.3l.1-.1h-.4l-.2-.1c0-.1.1.1.2.1.3-.2.4-.1.5-.1.1 0 0 0 0 0zm.7.8c0-.1-.1-.1-.1-.2l-.1-.1v-.1h.1c0-.1-.1-.1-.1-.1.1 0 .1.1.1.1v-.1c.1-.1 0-.1 0-.1h-.1c-.1 0-.2.1-.1.2v.1s0 .1.1.1c0 0 .1 0 .1.1-.1 0 0 0 .1.1zm0-.1c.1 0 0 .1.1.2h.1s.1 0 .1.1l.1.1c0-.1-.1-.2-.1-.2h-.1.1c0-.1-.1-.2-.2-.2h-.1.1l-.2-.2.2.2v-.1s0 .1.2.4v-.1.2s.1-.1 0-.2c0 0 .1-.1 0-.2 0 0 0-.1-.1-.1 0 0 0 .1-.1.1h-.1v-.1s-.1 0-.1-.1v-.1s-.1.1-.1 0c0 0 0-.1-.1-.1 0 0 0-.1-.2.1v.3c.4-.1.4-.1.5 0zm-2.7.2v.1h-.1l-.2.2c0 .3-.4.7-.4.7v.3h-.1v.2h.1v.1l.1-.1c0-.1.1-.2.1-.2h.1v-.1h.1l.6.2.2.1s.1 0 0 .1l-.2.4-.2.3h-.1l-.3-.6c0 .1-.1.7-.1.8l.1.1h.1l.2.2v.1l.2.1.1-.1.2.1v.1l.2.1.1-.1h.3v.1h.2v-.1h.3l.1.1.2-.1v-.1l.2-.1.1.1.2-.1-.1-.1.2-.2h.1l.1-.2s-.2-.1-.2-.2v-.2c.1-.1 0-.2 0-.2v-.2c-.1.2-.2.5-.3.7h-.2l-.5-.7v-.1l.4-.2.4-.2h.1v.1c.1 0 .2-.1.3.2l.1.2c0-.2.1-.2.1-.2v-.2h-.1v-.2s-.2-.1-.3-.5l.1-.1c-.1 0-.1-.1-.1-.1s0-.1-.1-.2l-.2-.2.1-.1-.2-.1-.1.1-.2-.1v-.1l-.2-.1-.1.1h-.3v-.1h-.2v.1h-.3l-.1-.1-.2.1v.1l-.2.1-.1-.1-.1.3zm3.3 1.4c.1 0 0 0 0 0 0 .1 0 .1 0 0zm-.1.3v.2s.1 0 .1.1c0-.1-.1-.2-.1-.3.1 0 .2.1.2.1 0-.1.1-.2 0-.3 0 .3-.2.2-.2.2zm-.1.5c.1 0 .1-.2.1-.2s-.1 0-.1.1v-.1c.1 0 0-.1 0-.2v-.2h-.1l-.1.1v.2h.1v-.2.2c.1.1 0 .2 0 .3 0-.2 0-.1.1 0-.1-.1-.1 0 0 0-.1.1 0 0 0 0zm-.2.2c.1 0 .1 0 .1.1v-.3c-.1 0-.2 0-.1.2-.1 0-.1 0 0 0-.1.1 0 .1.1.2h.1l-.2-.2zm0-.6s0-.1 0 0l-.1-.1v.1c0 .1 0 .1.1 0 0 .1-.1.1 0 0-.1.1-.1.2-.1.2v.1-.2c.1 0 .1 0 .1-.1zm0 .2s.1.1 0 0c.1.1.1 0 0 0v-.1.1zm-.5-.5l-.5.2.5.7c.2-.3.3-.5.3-.8v-.2l-.3.1zm-.6 2.3c.1 0 .3-.1.3-.2h.2v-.1c0-.1-.2 0-.4.1 0 .1-.1.1-.1.2-.1-.1-.1 0-.1 0h.1zm.6-.3c.2-.2.3-.5.3-.5.1-.1.1-.2.1-.2h-.1l-.1.1.1.1-.3.2-.1-.1-.2.1v.1l-.3.1-.1-.1h-.2v.1h-.4V28h-.2l-.1.1-.3-.1v-.1l-.2-.1-.1.1-.3-.2.1-.1-.1-.1-.1.1.1.2s0 .3.4.5c.1-.1.1-.1.2-.1h.1c.1 0 .3.1.4.2 0 .1.1.1.2.1 0-.1.1-.1.2-.1h.5l.2-.2h.1c-.2 0 .1-.1.2 0zm-1.9.1s-.1-.1 0 0c-.2 0-.2 0-.2.1 0 0 .1.1.2.1 0 0 .1.1.2.1h.1c0-.2-.2-.3-.3-.3zm-.8-1.1s-.1 0 0 0v-.3c0-.1.1-.3 0-.5 0-.1 0-.2-.1-.2 0 0-.1.1-.1.2-.1.2-.1.6-.1.7v.4-1.1.1c.3.1.2.6.3.7zm.1-.8c0 .3.2.6.3.8l.2-.4.2-.3-.2-.1-.6-.2c.1 0 .1.1.1.2zm-.4.5v.2s.1-.2 0-.2zm0 .2s0 .1 0 0zm.1-.5c-.1 0-.2.2-.2.3 0 0-.1.2-.1.3 0 .2 0 .3.1.4H7s0 .2.1.1v-.2H7v-.4c-.1-.2.1-.3.1-.5zm-.3.1l.2-.1v-.2h-.2c-.2.1-.2.2 0 .3-.1.1 0 .2 0 .2v-.2zm-.1-.7l.1-.1c.3-.7.6-.9.6-.9-.1.2-.5.6-.5.9-.1 0-.1.1-.2.1.1 0 .1 0 0 0l.1-.1.2-.2c.2-.2.5-.8.4-.8-.1 0-.6.6-.6 1-.1 0-.1.1-.1.1zm.1-.5l.1-.1c-.1 0-.2.2-.2.5 0-.1.1-.3.1-.4zm.7-1c-.1.1-.2.2-.3.4 0 0-.1.1-.1.2.1 0 .1-.1.2-.2s.3-.3.2-.4zm-.1.4l.1-.1v-.1c0 .1 0 .1-.1.2zm-.5 1s0 .1 0 0c-.1.1-.2.2-.2.3v.2h.1V26h.1v-.1c.1 0 .1 0 0 0zm-.1.9c.1 0 .1 0 0 0 .1-.1 0-.1 0 0zm1-2.5c0-.1-.1 0-.1 0 0 .1 0 .1.1 0zm.3-.4c-.1.1-.2.1-.4.2-.1 0-.1.1-.2.1 0 0-.1 0-.1.1.1 0 .1-.1.3-.2.1-.1.3-.2.4-.2.1-.1.2-.1.2-.1s-.1.1-.2.1c-.1.1-.3.2-.4.2-.1.1 0 .1 0 .1s.1 0 .2-.1.3-.2.3-.2l.1-.1c.2-.1-.1.1-.2.1zm-.6.3l.2-.2s.1 0 .1-.1c.2-.1.3-.2.5-.3 0 0-.3.2-.4.3l-.1.1.2-.1s.1 0 .1-.1l.3-.3s-.4.1-.7.4c-.1.1-.2.3-.2.3zm0 .1c.1-.1.1-.1.2-.1l.1-.1s-.1 0-.1.1c-.2 0-.2.1-.2.1zm-.1.2l.1-.1c.1-.1-.1 0-.1.1zm-.1 0l.1-.1h-.1c0 .1-.2.3-.4.5-.1.1-.1.2-.1.2l.2-.2c.1-.2.3-.3.3-.4.1 0 .1 0 0 0zm-.5.5c.1-.1.1-.1.1-.2.1-.2.2-.5.4-.7l.1-.1s0-.1.1-.1v.1s0 .1-.1.1c-.1.2-.3.5-.4.7v.1l.1-.1c.1-.2.3-.5.4-.7 0-.1.1-.2.1-.2h-.1c-.1 0-.1.1-.2.2s-.2.4-.3.7c-.2.1-.2.2-.2.2zm-.3 1.4c0 .2.1.3 0 .4h.1l.1.1c0 .1.1.1.1.2-.1-.1-.1-.4-.2-.4 0-.1 0-.2-.1-.3.1 0 .1 0 0 0 .2 0 .2-.2.2-.2l-.2.2.1-.1c0-.1 0-.2.1-.3.1-.2.2-.5.2-.5.1 0 .1-.1.1-.1.2-.4.3-.4.3-.4.1-.1.2-.3.3-.4-.1.1-.3.2-.4.4-.1.1-.1.1-.1.3 0 0 0 .1-.1.2-.1 0 0-.1 0-.1s0 .1-.1.1c0-.1.1-.3.1-.3-.1.1-.1.2-.1.2-.1 0-.1.1-.1.2h.1v.1l-.1.2v.1c0 .1-.1.2-.1.2v.2c-.2-.2-.1 0-.2 0-.1-.2-.1-.4-.1-.6 0-.3.1-.6.2-.9 0-.1.1-.2.1-.2 0 .1 0 .2-.1.3 0 .1-.2.7-.2.9v-.1c0-.1.2-.7.2-.8 0 0 .1-.2 0-.3-.1.1-.2.4-.2.4-.2.4-.2.9-.1 1.4.1-.3.1-.1.2-.1zm.2-1.1c-.1.3-.1.4-.1.4v-.1s.1-.2.1-.3zm0 1.8c0-.1-.1-.1-.1-.1 0 .1.1.1.1.1v.2-.2c0 .1 0 .1 0 0zM8 28.6h.2c0-.1-.1-.1-.2 0l.1-.1c-.3-.1-.7-.5-.7-.6v-.2c-.1-.1-.2-.3-.2-.4v.1c-.1 0 0-.1-.1-.1v.1c.1.1.1.2.2.3.1.1.1.2.1.3 0 0 0 .2.1.1v.1c0 .1-.1-.1-.1 0l-.2-.2v-.1h-.1s-.1 0-.1-.1v.1l-.1-.1-.1-.1c-.1-.1-.2-.3-.3-.4 0-.1-.2-.2-.2-.3h.1c-.1-.2-.1-.4-.1-.4.1.2.1.4.2.7v.1s0 .1.1.1v-.3c0-.2-.2-.5-.3-.6l-.1-.1v.3c0 .2 0 .4.5.9l.3.3h.1s.2.3.3.3c0 0 0-.1.1-.1h.2c-.1.1.2.4.3.4zm-.2 0s0-.1 0 0h-.1v.1s.2 0 .1-.1c.1 0 .1 0 0 0zm-1.2-.5h.1V28h.1l-.1-.1h.1s-.1 0-.1-.1c-.1.1-.1.2-.1.3zm-.2 0c.1 0 .2.1.2.1v.1l.1.1h.1s.1-.1.1-.2h-.1c-.1 0-.1 0-.2-.1h-.2zm1.9 1.3h-.2s-.1 0 0 0c-.1.1-.1.1-.2 0-.1 0-.2.1-.3.2-.1 0-.2.1-.2.1h.1s.2 0 .2.2c0 0 .1 0 .1-.1h-.1.1l.1-.1c.2-.1.4-.3.4-.3zm.7-.3c0-.1-.1-.2-.1-.4 0-.1-.1-.1-.1-.1-.1 0-.4 0-.7.1-.3 0-.6.1-.7.1 0 0-.4-.2-.7-.4l-.4-.2v-.1h-.1c0 .1-.1.3-.1.4v.1l.1-.1.1-.1v-.1h.2l.1.1v.1s-.1.1-.1 0v.2h-.1v-.2l-.1.1v.1h-.1v.1c.1.2 1 .7 1.1.7h.3c.1 0 1.2-.2 1.4-.2-.1-.1 0-.1 0-.2zm-2.7-.7h.1v-.1s-.1 0-.1.1zm3 .6c0-.1-.2-.6-.3-.5 0 0-.1 0-.1-.1h-.1s-.1 0-.1.1c0 0 .1 0 .2.1 0 0 .1.1.1.3v-.2c.1 0 .1.3.1.3s0-.1 0 0v.2h.1c0-.1.1-.1.1-.2 0 0 0-.1 0 0v.2c.1 0 .1-.1.1-.2v-.1c-.1 0-.2.2-.1.1 0 .1 0 .1 0 0zm.6.5s.1 0 0 0c0 0-.2-.2-.3-.2l-.1-.1h-.1s0 .1.2.1c0 0-.1.1.1.1 0 0 .1 0 .1.1.1 0 .1.1.2.1v.1l.1-.1v.1c.1-.1.3-.1.4-.1h-.2c-.2.1-.2-.1-.3-.1-.1 0 0 .1 0 .1l-.1-.1c.1 0 .1.1 0 0 .1 0 .1 0 0 0zm1.5-1.4s0 .1-.1.1c-.2.2-.8.5-.9.5 0 0-.3 0-1.2-.2l.1.2s0 .2-.1.3c.1.1.7.2 1.1.2.2 0 .3 0 .4-.1.1 0 .6-.4.8-.5v-.1c-.1-.2-.1-.4-.1-.4.1 0 .1.1 0 0 0-.1-.1 0 0 0zm-1.4.6c.1 0 .1-.1 0 0 .1-.1.1-.1 0-.1v.1c0-.1 0-.1 0 0 0-.1 0 0 0 0zm.8-.6V28c0-.1 0-.1 0 0-.1 0-.2.1-.2.1v.1s0 .1-.1.1l-.3.1v.2h.2c.1 0 .5-.3.5-.3v-.1c-.1 0-.1-.1-.1-.1zm.3.1h-.2s0 .1.1.1c0 0 .1 0 0 0l.1-.1c-.1 0-.1 0 0 0-.1 0 .2-.1.2-.1-.1 0-.2 0-.2.1zm-.2-.2l.1-.1c0 .1-.1.1-.1.1 0 .1.1 0 .2 0v.1h.2V28c-.4-.1-.4 0-.4 0zm.7-1.6c-.1-.1 0-.1 0-.2 0 0-.1 0-.1-.1l-.1-.1h-.1v.1h-.1v.3h-.1c0 .1-.1.2-.1.3v.2s.1 0 .1.1c0 0-.1.2 0 .3 0 0 0-.1.1-.1v-.1c0-.1.1-.2 0-.3 0-.1-.1-.1 0-.2v.2c0-.1.1-.3.1-.4-.1-.1 0-.2 0-.2s0 .2.1.2c0 0 .1-.4.1-.3 0 0 0 .1-.1.4.1 0 .1-.1.1-.1 0 .1-.2.3-.2.4 0 0 .1 0 .1-.1v.1c-.1 0-.1.1-.2.1 0 .1-.1.2-.1.3 0 0 .1-.1.1 0-.1 0-.1.1-.1.1s0 .1-.1.2c0 .1-.1.1-.1.2h-.1v-.1h.1v-.2s0 .2-.1.2c-.1.1-.2.2-.2.3v-.1c0-.1.1-.2.1-.3 0 0 0-.1.1-.1 0 0 .1-.1.1-.2v-.1h.1c.1-.1.2-.3.2-.3.1-.1.2-.9.2-.9 0-.1.1-.1.1-.1 0-.1.1-.1.1-.1 0-.1 0-.1.1-.2v-.1c-.1-.1.1-.2 0-.3 0-.1-.1-.1-.1-.1v.1c-.1 0 0-.2 0-.3 0 0-.1 0-.1-.2h-.1v-.2c-.1-.1-.1-.2-.1-.2h-.1s0-.2-.1-.2l-.1.1c-.2 0-.1 0-.1.1s0 .1-.1.2c0 .1 0 .1.1.2l.1.1v.1c0 .1.1.2.2.2 0 .1 0 0-.1.1l.1.1c0 .1.1.1.1.2.1-.1-.1-.1 0-.1v.3s0-.1-.1-.1v-.1c0-.1-.1 0-.1-.1V25c0 .1-.1 0-.1 0 0 .1.1.2.1.3l-.1-.1c0-.1-.1-.2-.2-.3h.1l-.2-.2-.1-.1.1.1c0-.1-.1-.2-.1-.3 0 .1.1.1.1.2v.2c.2.2.2.3.2.3v-.2.1s.1-.1 0-.2v-.1l-.1.1v-.1s.1 0 0-.1c0-.1 0-.1-.1-.2h-.1c-.1 0 0-.1-.1-.1h-.1c0 .1-.1 0-.1 0s.1.1 0 .2v.1l.1.1v.1s0 .1.1.1c0 0 .1 0 .1.1h-.1c0 .1.1.2.1.3 0 0 .1 0 .2.1 0 .1-.1 0-.1 0 0 .1 0 0 .1 0v.1h.1s0 .1.1.1c0-.1.1.1 0 .1l.1.1c0 .1 0 .5-.1.5v-.1.2s.1.1 0 .1c-.2.4-.3.5-.3.5-.4.8-.5.9-.5.9-.1.2-.2.2-.2.2s-.1.1-.2.1h-.1c-.1.1 0 .1 0 .1l-.1-.1-.1.1h.3l.1-.1.1-.1h.1c.1 0 .2-.1.2-.2h.1s0-.1.1-.1l.2-.2s0 .1.1 0c0 0 .1 0 .1-.1h.2c0-.1.1-.1.1-.1v-.1c0-.1.1-.1.1-.1s0-.1.2-.3h-.1c0-.1.1-.1.1-.1.1 0 .1-.1.1-.2h.1v-.1c0-.1.1-.1.1-.1-.2.1-.1.1-.2 0zm-.6 1.1s0-.1 0 0c-.1-.1-.1 0 0 0-.1 0-.1 0 0 0 0 .1-.1.1-.1.2.1-.1.1-.2.1-.2zm-.1-.2v.2l.1-.1c-.1.1-.1 0-.1-.1zm-.4.4c0 .1 0 .1 0 0 0 .1 0 .1 0 0 .1.1.1.1 0 0 .1 0 .1-.1.1-.1 0 .1 0 .1-.1.1zm-2.7 2c0 .1 0 .1 0 0 .1 0 .2-.1.3-.1H8c-.1 0-.1.1-.2.1zm.8-3.9l.3-1 .3 1h1l-.9.6.4 1-.8-.6-.8.6.4-1-.9-.6h1zm0 .1h-.8l.7.5-.3.8.7-.5.7.5-.3-.8.7-.5h-.8l-.2-.8-.4.8zm.9 1.7c.1.1 0 .1 0 .1-.2.1-.4.1-.6.1-.2 0-.4 0-.6-.1 0 0-.1 0 0-.1l.6-.7H9l.5.7zm-.1 0l-.6-.7-.6.7c.2.1.4.1.6.1.3 0 .5 0 .6-.1zm-2.1 1.2c-.1 0-.1 0 0 0-.1 0-.1 0-.2.1L7 29l.1-.2-.1-.1v.1l-.1.3.4-.3c-.1 0-.1 0 0 0zm1.8-3.6v-.5c.3.1.6.2.8.5.1.1.1.2.2.2v.1l-.8.2h-.1l-.1-.5zm.1-.4v.9l.8-.2c-.1-.1-.1-.2-.2-.3-.1-.2-.4-.3-.6-.4zm-1.7.6c.1-.1.1-.2.2-.2.2-.2.5-.4.8-.5h.1v1s0 .1-.1.1l-.8-.2c-.2-.1-.2-.1-.2-.2 0 .1 0 .1 0 0zm.1.1l.9.2v-.9c-.3.1-.5.2-.7.4-.1.1-.2.2-.2.3zm-1 3.3c-.1 0-.1.1-.1 0v-.2c.1 0 .1.1.1.2v-.2h-.1l.1-.1v.1l.1-.1-.2-.1v.1l-.1.2s0 .1-.1 0l.2.1h.1zm.2 0c-.1.1-.1.1-.1.2l-.1-.1h.1l.1-.1v-.3H7l.1.1v.1c-.2.1-.3.1-.3.1zm.1-.2l-.1.1h.1v-.1c0 .1 0 0 0 0zm4.1.4l-.1.1-.1-.1-.1.1v.1l-.1.1v-.4l.2.2.2-.1c-.1 0-.1 0 0 0zm-.2-.1l-.1-.1.1.1zm-3.3.1c0 .1-.1.1 0 0l-.1.1s.1.1 0 .1h-.2l-.1-.1.1-.1.1-.2v-.1l.1.1c0 .1.1.2.1.2zm-.2.1c-.1.1-.1.1 0 0-.1.1-.1.2-.1.2h.1c.1-.2 0-.2 0-.2zm.1-.2l-.1.1h.1v-.1c0 .1 0 0 0 0zm3 .3c-.1 0 0 0 0-.1v-.3h-.2v.4h.3v-.1l-.1.1zm.7-.7c-.1 0 0 0 0 0l.1.2-.3-.1-.1.1h.1l.1.2v.1l.1-.1s-.1 0-.1-.1l-.1-.2.4.2-.2-.3c0 .1 0 0 0 0zm-.5.6v-.3h-.2l.1.1.1.2c-.1.1 0 .1-.1.1l.1-.1c0 .1 0 .1 0 0zm.6-3.1c.1 0 0-.2 0-.3v-.2c0-.1.1-.3 0-.3v.2c0-.1-.1-.4-.1-.5v.1-.1l.1.2s0-.1-.1-.1c0 .1.2.3.2.4l-.1-.1c.1.1.1.2.2.3l-.1-.1c0 .1 0 .1.1.1-.1.1-.1.3-.2.4zm0 2.4l.2.2.1.1-.1.1-.1-.1h-.1v.1l-.1.1v-.2l.1-.3zm0 .1v.2h.1l-.1-.2zm-.3-3.9s0 .1 0 0v.1c.1 0 0 0 0-.1 0 .1 0 0 0 0zm-.8 4.6H10h.1l-.1-.1h-.1v.1h-.1l.1-.1.1-.1.1-.2v.4zm-.1-.1v-.2.2zm-1.9 0c0 .1 0 .1-.1.1 0 0-.1 0-.1-.1v-.3h-.2l.1.1v.3l.3-.1zm.1 0v-.3H8l.1.1.1.2-.1.1.1-.1zm1.7-.2v-.1l-.3-.1v.1c0-.1 0-.1.1-.1v.1l-.1.2c0 .1 0 .1-.1.1h.2V29l.2-.1c-.1-.1-.1-.1 0-.1v.1zm-2.1.2s0 .1 0 0c0 .1-.1.1-.1.1h-.1v-.3c0-.1 0-.1-.1-.1h.1s.1 0 .1.1l-.1.1c.1 0 .2 0 .2.1zm-.2-.1c.1 0 .1 0 0 0v-.1.1zm.1.1l-.1-.1.1.1c-.1.1-.1.1 0 0-.1.1 0 .1 0 0 0 .1 0 .1 0 0 0 .1 0 .1 0 0zm.8-.1c0 .1 0 .1-.1.1s-.1-.1-.1-.2 0-.2.1-.2c0 0 .1 0 .1.1v-.1h-.1c-.1 0-.1.1-.1.2s.1.2.2.2c0 0 .1 0 .1-.1h-.1zm1-.3s0 .1 0 0v.3c0 .1 0 .1-.1.1h.2v-.3s0-.1.1-.1h-.2zm-.6.3s0 .1 0 0h-.1c0 .1 0 .1.1 0l-.1-.1h-.1v.1h-.1s0-.1.1-.1v-.3l.1.2.1.2c-.1 0-.1 0 0 0zm-.2-.1l-.1-.1.1.1zm6.9-.9v.1h34.8v-1.7L15.6 28zM38 39.2s-.1 0 0 0c-.1 0-.1 0-.1-.1v-1h.3v-.2h-.3v-.5l-.3.2v.4h-.2v.2h.2v1.1l.1.1h.4v-.2H38zm2.3-3.3v.2h.2v-1.5h-.3v1.1c0 .1-.1.1-.1.2-.1 0-.1.1-.2.1s-.1 0-.2-.1c-.1 0-.1-.1-.1-.2v-1.1h-.3v1.1c0 .1 0 .1.1.2 0 .1.1.1.2.1s.2.1.2.1c.2.1.4 0 .5-.2zm-.7 3.3c0 .1 0 .1.1.2h-.3c0-.1 0-.1-.1-.2-.1.1-.2.1-.3.2h-.3c-.2 0-.3 0-.4-.1-.1-.1-.1-.2-.1-.3 0-.1 0-.1.1-.2 0-.1.1-.1.1-.1.1 0 .1-.1.2-.1h.2c.2 0 .4-.1.5-.1v-.1c0-.1 0-.2-.1-.2-.1-.1-.2-.1-.3-.1-.1 0-.2 0-.3.1-.1 0-.1.1-.1.2h-.2c0-.1.1-.2.1-.3l.2-.2c.1 0 .2-.1.3-.1h.3c.1 0 .1.1.2.1 0 0 .1.1.1.2v.5c.1.4.1.6.1.6zm-.3-.5c-.1 0-.2.1-.4.1-.1 0-.2 0-.2.1 0 0-.1 0-.1.1v.1c0 .1 0 .1.1.2.1 0 .1.1.2.1s.2 0 .3-.1c.1 0 .1-.1.2-.2-.1-.1-.1-.2-.1-.4zm-.6-3.5c0-.2 0-.2-.1-.3-.1-.1-.2-.1-.3-.1-.1 0-.2 0-.3.1-.1 0-.1.1-.1.2h-.2c0-.1.1-.2.1-.3l.2-.2c.1 0 .2-.1.3-.1h.3c.1 0 .1.1.2.1 0 0 .1.1.1.2v1c0 .1 0 .1.1.2h-.3c0-.1 0-.1-.1-.2-.1.1-.2.1-.3.2H38c-.2 0-.3 0-.4-.1-.1-.1-.1-.2-.1-.3 0-.1 0-.1.1-.2 0-.1.1-.1.1-.1.1 0 .1-.1.2-.1h.2c.3.1.5 0 .6 0zm0 .2c-.1 0-.2.1-.4.1-.1 0-.2 0-.2.1 0 0-.1 0-.1.1v.1c0 .1 0 .1.1.2.1 0 .1.1.2.1s.2 0 .3-.1c.1 0 .1-.1.2-.2-.2-.1-.1-.2-.1-.4zm7.4-.6c.1.1.2.3.2.6 0 .2 0 .3-.1.5-.1.1-.1.2-.3.3-.1.1-.2.1-.4.1s-.4-.1-.5-.2c-.1-.1-.2-.3-.2-.6s.1-.5.2-.6c.1-.1.3-.2.5-.2.3-.1.4 0 .6.1zm-.1.6c0-.2 0-.3-.1-.4-.1-.1-.2-.1-.3-.1-.1 0-.2 0-.3.1-.1.1-.1.2-.1.4s0 .3.1.4c.1.1.2.1.3.1.1 0 .2 0 .3-.1.1 0 .1-.2.1-.4zm-1.5-.6c0-.1-.1-.1-.2-.1H44c-.2 0-.4.1-.5.2v-.2h-.2v1.5h.3v-.8c0-.2 0-.3.1-.4.1-.1.2-.1.3-.1h.2c.1 0 .1.1.1.1v1.1h.3V35c-.1-.1-.1-.1-.1-.2zm3.6-.2c-.2 0-.3.1-.5.3 0-.1-.1-.1-.2-.2-.1 0-.2-.1-.3-.1-.1 0-.2 0-.3.1-.1 0-.1.1-.2.2v-.2h-.2v1.5h.3v-1.1c0-.1.1-.1.1-.2.1 0 .1-.1.2-.1s.2 0 .2.1.1.1.1.3v1h.3v-.9c0-.2 0-.3.1-.3.1-.1.2-.1.3-.1h.2l.1.1v1.1h.3v-1c0-.2 0-.3-.1-.4-.1 0-.2-.1-.4-.1zm-11.1 4c-.1 0-.2-.1-.4-.1-.1 0-.2-.1-.2-.1s-.1 0-.1-.1v-.1c0-.1 0-.1.1-.1 0 0 .1-.1.3-.1.1 0 .2 0 .2.1.1 0 .1.1.1.2h.2c0-.1 0-.2-.1-.2 0-.1-.1-.1-.2-.1s-.2-.1-.3-.1h-.2c-.1 0-.1 0-.2.1-.1 0-.1.1-.1.1v.2c0 .1 0 .1.1.2 0 .1.1.1.2.1s.2.1.4.1c.1 0 .2.1.3.1.1 0 .1.1.1.1 0 .1 0 .1-.1.2-.1 0-.1.1-.3.1-.1 0-.2 0-.3-.1-.1-.1-.1-.1-.1-.2h-.3c0 .2.1.3.2.4.1.1.3.1.4.1.1 0 .2 0 .3-.1.1 0 .2-.1.2-.2s.1-.2.1-.2c0-.1 0-.2-.1-.2s-.1 0-.2-.1zm3.4.6s-.1 0 0 0c-.1 0-.1 0-.1-.1v-1h.3v-.2h-.3v-.5l-.3.2v.4h-.2v.2h.2v1.1l.1.1h.4v-.2h-.1zm9.8-3.2c0 .1 0 .1.1.2H50c0-.1 0-.1-.1-.2-.1.1-.2.1-.3.2h-.3c-.2 0-.3 0-.4-.1-.1-.1-.1-.2-.1-.3 0-.1 0-.1.1-.2 0-.1.1-.1.1-.1.1 0 .1-.1.2-.1h.2c.2 0 .4-.1.5-.1v-.1c0-.1 0-.2-.1-.2-.1-.1-.2-.1-.3-.1-.1 0-.2 0-.3.1-.1 0-.1.1-.1.2h-.2c0-.1.1-.2.1-.3l.2-.2c.1 0 .2-.1.3-.1h.3c.1 0 .1.1.2.1 0 0 .1.1.1.2v.5c.1.4.1.5.1.6zm-.3-.6c-.1 0-.2.1-.4.1-.1 0-.2 0-.2.1 0 0-.1 0-.1.1v.1c0 .1 0 .1.1.2.1 0 .1.1.2.1s.2 0 .3-.1c.1 0 .1-.1.2-.2-.1-.1-.1-.2-.1-.4zm-7-.6c.1.1.2.3.2.6 0 .2 0 .3-.1.5-.1.1-.1.2-.3.3-.1.1-.2.1-.4.1s-.4-.1-.5-.2c-.1-.1-.2-.3-.2-.6s.1-.5.2-.6c.1-.1.3-.2.5-.2.3-.1.4 0 .6.1zm-.1.6c0-.2 0-.3-.1-.4-.1-.1-.2-.1-.3-.1-.1 0-.2 0-.3.1-.1.1-.1.2-.1.4s0 .3.1.4c.1.1.2.1.3.1.1 0 .2 0 .3-.1.1 0 .1-.2.1-.4zm-.9 2.7c.1.1.2.3.2.6 0 .2 0 .3-.1.5-.1.1-.1.2-.3.3-.1.1-.2.1-.4.1s-.4-.1-.5-.2c-.1-.1-.2-.3-.2-.6s.1-.5.2-.6c.1-.1.3-.2.5-.2.3-.1.5-.1.6.1zm-.1.6c0-.2 0-.3-.1-.4-.1-.1-.2-.1-.3-.1-.1 0-.2 0-.3.1-.1.1-.1.2-.1.4s0 .3.1.4c.1.1.2.1.3.1.1 0 .2 0 .3-.1.1-.1.1-.2.1-.4zm-.8-4.4v.4h-.2v.2h.2v1.2l.1.1h.4V36h-.2v-1h.3v-.2h-.3v-.5H41zm-10.1 5.1h.3v-2.1h-.3v2.1zm-8.5-5.3h-.3v.3h.3v-.3zm1.6 4c.1.1.2.3.2.6 0 .2 0 .3-.1.5-.1.1-.1.2-.3.3-.1.1-.2.1-.4.1s-.4-.1-.5-.2c-.1-.1-.2-.3-.2-.6s.1-.5.2-.6c.1-.1.3-.2.5-.2.3-.1.4-.1.6.1zm-.1.6c0-.2 0-.3-.1-.4-.1-.1-.2-.1-.3-.1-.1 0-.2 0-.3.1-.1.1-.1.2-.1.4s0 .3.1.4c.1.1.2.1.3.1.1 0 .2 0 .3-.1.1-.1.1-.2.1-.4zm-1.1-4v1.5h.3v-.8c0-.2 0-.3.1-.4.1-.1.2-.1.3-.1h.2c.1 0 .1.1.1.1v1.1h.3V35c0-.1 0-.1-.1-.2 0-.1-.1-.1-.2-.1h-.3c-.2 0-.4.1-.5.2v-.2h-.2zm-.6 1.5h.3v-1.5h-.3v1.5zm14.1-.1c-.1.1-.3.1-.4.1-.2 0-.4-.1-.5-.2-.1-.1-.2-.3-.2-.6s.1-.5.2-.6c.1-.1.3-.2.5-.2s.4.1.5.2c.1.1.2.3.2.6v.1h-1.1c0 .2.1.3.1.4.1.1.2.1.3.1.1 0 .2 0 .2-.1.1 0 .1-.1.2-.2h.3c-.1.2-.1.3-.3.4zm-.8-.8h.8c0-.1 0-.2-.1-.3-.1-.1-.2-.1-.3-.1-.1 0-.2 0-.3.1-.1 0-.1.1-.1.3zM22 37.9c-.2 0-.3.1-.5.3 0-.1-.1-.1-.2-.2-.1 0-.2-.1-.3-.1-.1 0-.2 0-.3.1-.1 0-.1.1-.2.2V38h-.2v1.5h.3v-1.1c0-.1.1-.1.1-.2.1 0 .1-.1.2-.1s.2 0 .2.1.1.1.1.3v1h.3v-.9c0-.2 0-.3.1-.3.1-.1.2-.1.3-.1h.2l.1.1v1.1h.3v-1c0-.2 0-.3-.1-.4-.1-.1-.3-.1-.4-.1zm2.5-1.7h.3v-1.5h-.3v1.5zm.2-2.1h-.3v.3h.3v-.3zM19 37.6h.3v-.3H19v.3zm-.5.5c.1.1.2.3.2.6v.1h-1.1c0 .2.1.3.1.4.1.1.2.1.3.1.1 0 .2 0 .2-.1.1 0 .1-.1.2-.2h.3c0 .2-.1.3-.2.4-.1.1-.3.1-.4.1-.2 0-.4-.1-.5-.2-.1-.1-.2-.3-.2-.6s.1-.5.2-.6c.1-.1.3-.2.5-.2.1 0 .2.1.4.2zm-.1.4c0-.1 0-.2-.1-.3-.1-.1-.2-.1-.3-.1-.1 0-.2 0-.3.1-.1.1-.1.2-.1.3h.8zM17 36c0 .1 0 .1.1.2h-.3c0-.1 0-.1-.1-.2-.1.1-.2.1-.3.2h-.3c-.2 0-.3 0-.4-.1-.1-.1-.1-.2-.1-.3 0-.1 0-.1.1-.2 0-.1.1-.1.1-.1.1 0 .1-.1.2-.1h.2c.2 0 .4-.1.5-.1v-.1c0-.1 0-.2-.1-.2-.1-.1-.2-.1-.3-.1-.1 0-.2 0-.3.1-.1 0-.1.1-.1.2h-.2c0-.1.1-.2.1-.3l.2-.2c.1 0 .2-.1.3-.1h.3c.1 0 .1.1.2.1 0 0 .1.1.1.2v.5c.1.4.1.5.1.6zm-.3-.6c-.1 0-.2.1-.4.1-.1 0-.2 0-.2.1 0 0-.1 0-.1.1v.1c0 .1 0 .1.1.2.1 0 .1.1.2.1s.2 0 .3-.1c.1 0 .1-.1.2-.2-.1-.1-.1-.2-.1-.4zm0 1.9h.3v2.1h-.2v-.2c-.1.1-.2.2-.4.2-.1 0-.2 0-.3-.1-.1-.1-.2-.2-.2-.3-.1-.1-.1-.3-.1-.4 0-.2 0-.3.1-.4.1-.1.1-.2.2-.3.1-.1.2-.1.3-.1.1 0 .2 0 .2.1.1 0 .1.1.2.1v-.7h-.1zm0 1.4c0-.2 0-.4-.1-.5-.1-.1-.2-.1-.3-.1-.1 0-.2 0-.3.1-.1.1-.1.2-.1.4s0 .3.1.4c.1.1.2.1.3.1.1 0 .2 0 .3-.1.1 0 .1-.1.1-.3zm9.5-2.7c0-.1.1-.2.1-.2 0-.1 0-.2-.1-.2 0-.1-.1-.1-.2-.1s-.2-.1-.4-.1c-.1 0-.2-.1-.2-.1s-.1 0-.1-.1v-.1c0-.1 0-.1.1-.1 0 0 .1-.1.3-.1.1 0 .2 0 .2.1.1 0 .1.1.1.2h.2c0-.1 0-.2-.1-.2 0-.1-.1-.1-.2-.1s-.2-.1-.3-.1h-.2c-.1 0-.1 0-.2.1-.1 0-.1.1-.1.1v.2c0 .1 0 .1.1.2 0 .1.1.1.2.1s.2.1.4.1c.1 0 .2.1.3.1.1 0 .1.1.1.1 0 .1 0 .1-.1.2-.1 0-.1.1-.3.1-.1 0-.2 0-.3-.1-.1-.1-.1-.1-.1-.2h-.3c0 .2.1.3.2.4.1.1.3.1.4.1.1 0 .2 0 .3-.1.1-.1.1-.2.2-.2zM19 39.4h.3v-1.5H19v1.5zm-.1-4.8c-.2 0-.3.1-.5.3 0-.1-.1-.1-.2-.2-.1 0-.2-.1-.3-.1-.1 0-.2 0-.3.1-.1 0-.1.1-.2.2v-.2h-.2v1.5h.3v-1.1c0-.1.1-.1.1-.2.1 0 .1-.1.2-.1s.2 0 .2.1.1.1.1.3v1h.3v-.9c0-.2 0-.3.1-.3.1-.1.2-.1.3-.1h.2l.1.1v1.1h.3v-1c0-.2 0-.3-.1-.4-.1 0-.2-.1-.4-.1zm1.8.6v1h.3v-.9c0-.2 0-.3.1-.3.1-.1.2-.1.3-.1h.2l.1.1v1.1h.3v-1c0-.2 0-.3-.1-.4-.1-.1-.2-.1-.3-.1-.2 0-.3.1-.5.3 0-.1-.1-.1-.2-.2-.1 0-.2-.1-.3-.1-.1 0-.2 0-.3.1-.1 0-.1.1-.2.2v-.2h-.2v1.5h.3v-1.1c0-.1.1-.1.1-.2.1 0 .1-.1.2-.1s.2 0 .2.1c-.1.1 0 .2 0 .3zm4.9 2.9c0-.1-.1-.1-.2-.1h-.3c-.2 0-.4.1-.5.2V38h-.2v1.5h.3v-.8c0-.2 0-.3.1-.4.1-.1.2-.1.3-.1h.2c.1 0 .1.1.1.1v1.1h.3v-1.1c0-.1-.1-.2-.1-.2zm8.4-.8h.3v2.1H34v-.2c-.1.1-.2.2-.4.2-.1 0-.2 0-.3-.1-.1-.1-.2-.2-.2-.3-.1-.1-.1-.3-.1-.4 0-.2 0-.3.1-.4.1-.1.1-.2.2-.3.1-.1.2-.1.3-.1.1 0 .2 0 .2.1.1 0 .1.1.2.1v-.7zm0 1.4c0-.2 0-.4-.1-.5-.1-.1-.2-.1-.3-.1-.1 0-.2 0-.3.1-.1.1-.1.2-.1.4s0 .3.1.4c.1.1.2.1.3.1.1 0 .2 0 .3-.1.1 0 .1-.1.1-.3zm-1-2.6c-.1.1-.2.1-.4.1s-.4-.1-.5-.2c-.1-.1-.2-.3-.2-.6s.1-.5.2-.6c.1-.1.3-.2.5-.2s.4.1.5.2c.1.1.2.3.2.6 0 .2 0 .3-.1.5 0 .1-.1.1-.2.2zm0-.3c.1-.1.1-.2.1-.4s0-.3-.1-.4c-.1-.1-.2-.1-.3-.1-.1 0-.2 0-.3.1-.1.1-.1.2-.1.4s0 .3.1.4c.1.1.2.1.3.1.1.1.2 0 .3-.1zm-1.4 1.8h.3v-.3h-.3v.3zm0 1.8h.3v-1.5h-.3v1.5zm3 0h.3v-1.5h-.3v1.5zm0-1.8h.3v-.3h-.3v.3zm.3-1.4v-1.1c0-.1 0-.1-.1-.2 0-.1-.1-.1-.2-.1h-.3c-.2 0-.4.1-.5.2v-.2h-.2v1.5h.3v-.8c0-.2 0-.3.1-.4.1-.1.2-.1.3-.1h.2c.1 0 .1.1.1.1v1.1h.3zm-3.2-2.1h-.3v.3h.3v-.3zm-4.5 4c.1.1.2.3.2.6 0 .2 0 .3-.1.5-.1.1-.1.2-.3.3-.1.1-.2.1-.4.1s-.4-.1-.5-.2c-.1-.1-.2-.3-.2-.6s.1-.5.2-.6c.1-.1.3-.2.5-.2.3-.1.5-.1.6.1zm-.1.6c0-.2 0-.3-.1-.4-.1-.1-.2-.1-.3-.1-.1 0-.2 0-.3.1-.1.1-.1.2-.1.4s0 .3.1.4c.1.1.2.1.3.1.1 0 .2 0 .3-.1.1-.1.1-.2.1-.4zm.8-3.8c.1 0 .1 0 .2.1l.1-.2c-.1-.1-.2-.1-.3-.1-.1 0-.1 0-.2.1l-.2.2v-.2h-.2v1.5h.3v-1.1c0-.1.1-.1.1-.1.1-.2.1-.2.2-.2zm-1.3-.6v.4h-.2v.2h.2v1.2l.1.1h.4V36h-.2v-1h.3v-.2h-.3v-.5h-.3zm2.3 4c.1.1.1.3.1.4 0 .2 0 .3-.1.4-.1.1-.1.2-.2.3-.1.1-.2.1-.3.1-.1 0-.2 0-.2-.1-.1 0-.1-.1-.2-.1v.7h-.3v-2.1h.2v.2l.2-.2c.1 0 .2-.1.3-.1.1 0 .2 0 .3.1.1.1.2.2.2.4zm-.2.4c0-.2 0-.3-.1-.4-.1-.1-.2-.1-.3-.1-.1 0-.2.1-.3.2-.1.1-.1.2-.1.4s0 .3.1.4c.1.1.2.1.3.1.1 0 .2 0 .3-.1.1-.2.1-.3.1-.5zm1.1-2.5h1.3V36h-1l.2-.2.8-1v-.2h-1.2v.2h.9l-1 1.1v.3zm-.5-.2c-.1.1-.2.1-.3.2h-.3c-.2 0-.3 0-.4-.1-.1-.1-.1-.2-.1-.3 0-.1 0-.1.1-.2 0-.1.1-.1.1-.1.1 0 .1-.1.2-.1h.2c.2 0 .4-.1.5-.1v-.1c0-.1 0-.2-.1-.2-.1-.1-.2-.1-.3-.1-.1 0-.2 0-.3.1-.1 0-.1.1-.1.2h-.2c0-.1.1-.2.1-.3l.2-.2c.1 0 .2-.1.3-.1h.3c.1 0 .1.1.2.1 0 0 .1.1.1.2v1c0 .1 0 .1.1.2h-.3V36zm0-.6c-.1 0-.2.1-.4.1-.1 0-.2 0-.2.1 0 0-.1 0-.1.1v.1c0 .1 0 .1.1.2.1 0 .1.1.2.1s.2 0 .3-.1c.1 0 .1-.1.2-.2-.1-.1-.1-.2-.1-.4zm2.1.8h.3v-1.5h-.3v1.5zm-1 1.9c.1.1.2.3.2.6 0 .2 0 .3-.1.5-.1.1-.1.2-.3.3-.1.1-.2.1-.4.1s-.4-.1-.5-.2c-.1-.1-.2-.3-.2-.6s.1-.5.2-.6c.1-.1.3-.2.5-.2.3-.1.5-.1.6.1zm0 .6c0-.2 0-.3-.1-.4-.1-.1-.2-.1-.3-.1-.1 0-.2 0-.3.1-.1.1-.1.2-.1.4s0 .3.1.4c.1.1.2.1.3.1.1 0 .2 0 .3-.1 0-.1.1-.2.1-.4z" fill="#fff"/></svg>