<svg width="40" height="40" fill="none" xmlns="http://www.w3.org/2000/svg"><path opacity=".5" fill-rule="evenodd" clip-rule="evenodd" d="M29.1 16.3h2.6v2.4h2.4v2.6h-2.4v2.4h-2.6v-2.4h-2.4v-2.6h2.4v-2.4zM8.5 27.2v-1.9h2.4v-9.4H8.3v-2.2h5.1v11.7h2.4v1.9H8.5v-.1zm13-8.1c.4 0 .7-.2.9-.5.2-.3.4-.8.4-1.3s-.1-1-.4-1.3c-.2-.3-.5-.5-.9-.5s-.7.2-.9.5c-.2.3-.3.8-.3 1.3s.1 1 .4 1.3c.1.3.4.5.8.5zm0 6.4c.5 0 .8-.2 1.1-.6.3-.4.4-.9.4-1.6 0-.7-.1-1.2-.4-1.6-.3-.4-.7-.6-1.1-.6-.5 0-.8.2-1.1.6-.3.4-.4.9-.4 1.6 0 .7.1 1.2.4 1.6.3.4.6.6 1.1.6zM19.4 20c-.6-.3-1-.7-1.3-1.3-.3-.5-.4-1.1-.4-1.8 0-1 .4-1.9 1.1-2.6.7-.7 1.6-1 2.7-1s2 .3 2.7 1c.7.7 1.1 1.6 1.1 2.6 0 .7-.1 1.3-.4 1.8-.3.5-.7.9-1.3 1.3.7.3 1.2.8 1.5 1.4.4.6.5 1.3.5 2.1 0 1.2-.4 2.2-1.1 2.9-.8.7-1.8 1.1-3 1.1s-2.2-.4-3-1.1c-.8-.7-1.1-1.7-1.1-2.9 0-.8.2-1.5.5-2.1.3-.6.9-1 1.5-1.4zM20 0C9 0 0 9 0 20s9 20 20 20 20-9 20-20S31 0 20 0zm0 2.4C10.3 2.4 2.4 10.3 2.4 20c0 9.7 7.9 17.6 17.6 17.6 9.7 0 17.6-7.9 17.6-17.6 0-9.7-7.9-17.6-17.6-17.6z" fill="#fff"/></svg>