<svg width="71" height="40" fill="none" xmlns="http://www.w3.org/2000/svg"><g opacity=".5" fill="#fff"><path opacity=".5" d="M27.5 2.3c.1.1.2.1.3 0 .1 0 .1-.1.2-.1.1-.1.1-.2.1-.3 0 0 0-.1-.1-.1 0-.1-.1-.1-.1-.1 0-.1 0-.2.1-.3.1-.1.2-.2.3-.2.3-.1.5 0 .6.1.1.1.1.3.2.5l.2.2c-.6.4-1 .8-1.2 1-.3.3-.4.7-.3 1.1.1.2.2.4.4.5.2.1.4.1.6.1.2-.1.4-.2.6-.4.1-.1.3-.3.4-.5 0 .2.1.3.2.4.1.1.2.1.4.1.1 0 .3-.1.4-.2.1-.1.1-.2.2-.3l-.1-.2c-.1.1-.1.2-.2.2 0 0-.1 0-.1.1-.1 0-.2 0-.2-.1s-.1-.1-.1-.3L29.9 2c-.1-.3-.2-.6-.3-.7-.3-.3-.6-.4-1.1-.2-.5-.1-.8 0-.9.3-.2.2-.2.5-.2.6 0 .1 0 .2.1.3zm2.1 1.1c0 .1 0 .3-.1.4-.2.2-.3.3-.5.3h-.4c-.2-.1-.3-.2-.4-.5-.1-.3 0-.6.4-.9.2-.2.4-.3.6-.5l.4 1.2zm2-1.9c.1 0 .1 0 .2-.1s.1-.2.1-.3V.8c0-.1 0-.2.1-.3.1-.1.2-.1.4-.1.3 0 .5 0 .6.2v.8c-.7.3-1.1.6-1.4.8-.4.3-.5.6-.5 1 0 .2.1.4.3.6.3.1.5.2.8.2.2 0 .4-.1.7-.3.1-.1.3-.2.5-.4 0 .2.1.3.2.4.1.1.2.2.4.1.2 0 .3-.1.4-.2.1-.1.2-.2.2-.3v-.2c-.1.1-.2.1-.2.2h-.1c-.1 0-.2 0-.2-.1s0-.2-.1-.3l-.2-1.6c0-.3-.1-.6-.2-.8-.2-.3-.6-.4-1.1-.4-.4 0-.8.2-1 .4-.2.2-.3.4-.3.6 0 .1 0 .2.1.2.1.2.2.2.3.2zm1.6 1.4c0 .1-.1.3-.2.4-.1.1-.3.2-.5.2-.1 0-.2 0-.4-.1s-.3-.3-.3-.5c0-.3.1-.6.5-.8.2-.1.4-.3.7-.4l.2 1.2z"/><path opacity=".5" d="M36.4 3.6c-.2 0-.4-.1-.4-.1-.1-.1-.1-.2-.1-.4l.2-2.2c.1-.1.3-.2.4-.3.2-.1.3-.1.5-.1.3 0 .4.2.5.4v.8l-.1 1.1c0 .3-.1.6-.2.6-.1.1-.2.1-.5.1v.1l1.8.2v-.1c-.2 0-.4-.1-.5-.2v-.4l.2-2c.2-.1.3-.2.4-.3.2-.1.3-.1.5-.1.3 0 .5.1.5.4 0 .1.1.3 0 .6l-.1 1.7c0 .2-.1.4-.1.4-.1.1-.2.1-.5.1V4l1.8.1V4c-.2 0-.4-.1-.4-.2-.1-.1-.1-.2-.1-.4l.1-1.6V.9c-.1-.4-.4-.5-.8-.6-.3 0-.5 0-.8.2-.2.1-.3.2-.5.4 0-.2-.1-.3-.2-.4-.1-.2-.3-.3-.6-.3-.2 0-.4 0-.6.1-.2.1-.4.2-.7.4V.1s-.1 0-.4.1c-.2.1-.4.1-.5.1l-.3.1v.1h.2c.1 0 .2 0 .2.1s.1.2 0 .4l-.2 2c0 .2-.1.4-.2.4s-.2.1-.4.1v.1l1.8.2.1-.2zm4.8.7c.1 0 .2.1.4.2s.3.2.5.2c.4.1.7.1.9 0 .3-.1.4-.3.5-.6.1-.4-.1-.8-.5-1.2l-.4-.4c-.3-.3-.4-.5-.4-.8 0-.1.1-.3.3-.3.1-.1.3-.1.5 0 .3.1.5.3.6.6 0 .2.1.4.1.6h.1l.3-1.1h-.3s-.1-.1-.3-.1c-.2-.3-.4-.3-.5-.4-.3-.1-.6-.1-.8.1-.3.1-.4.3-.5.6-.1.2 0 .4.1.7.1.2.3.4.5.7l.4.4c.1.1.2.3.3.4.1.1 0 .2 0 .3 0 .2-.1.3-.3.4-.1.1-.3.1-.5 0-.3-.1-.6-.3-.7-.6-.1-.2-.1-.4-.1-.7h-.1l-.3 1h.2c-.1 0-.1 0 0 0z"/><path opacity=".5" d="M30.6 29.9c-.1.4-.1.7-.1 1.1h9.7c0-.3 0-.7-.1-1l14.2-6.4c.9 2.3 1.3 4.8 1.3 7.3v.3H61v-.3c0-3.4-.6-6.6-1.8-9.5l3.7-1.7c.5-.2.7-.8.5-1.2-.2-.5-.8-.7-1.2-.5l-3.7 1.6c-2.6-5.2-6.9-9.5-12.1-12L47.9 4c.2-.5 0-1-.5-1.2-.5-.2-1 0-1.2.5L44.6 7c-2.8-1.1-5.9-1.7-9.1-1.7-3.2 0-6.3.6-9.1 1.7l-1.6-3.6c-.2-.5-.8-.7-1.2-.5-.6 0-.8.6-.6 1.1l1.5 3.7c-5.3 2.5-9.6 6.7-12.2 11.9l-3.6-1.5c-.5-.2-1 0-1.2.5-.2.5 0 1 .5 1.2l3.5 1.6c-1.2 3-1.8 6.2-1.8 9.6v.3h5.4V31c0-2.6.5-5 1.4-7.4l14.1 6.3zm1.1-2.1l-14.4-6.1c1-1.9 2.2-3.6 3.7-5.2 1.6-1.7 3.5-3 5.5-4L32.6 27c-.3.2-.6.5-.9.8zm3.7-1.7h-.5l-6.4-14.5c2.2-.8 4.5-1.2 6.9-1.2 2.4 0 4.8.4 7 1.3L36 26.2c-.2-.1-.4-.1-.6-.1zm3.7 1.8c-.3-.3-.5-.6-.9-.8l6.1-14.5c2 1 3.8 2.3 5.4 4 1.5 1.6 2.8 3.3 3.8 5.3l-14.4 6zm21.4 2.7h-4.2c0-2.5-.5-5-1.4-7.2l3.8-1.7c1.1 2.8 1.8 5.8 1.8 8.9zm-2.6-10.7L54 21.5c-1-2-2.3-3.8-3.9-5.4-1.7-1.7-3.6-3.1-5.6-4.1l1.6-3.8c5.2 2.5 9.3 6.6 11.8 11.7zM35.4 5.8c3.1 0 6.1.6 8.9 1.6l-1.6 3.7c-2.3-.9-4.7-1.3-7.2-1.3s-4.9.4-7.2 1.3l-1.6-3.7c2.6-1 5.6-1.6 8.7-1.6zM24.8 8.2l1.6 3.7c-2.1 1-4 2.4-5.7 4.1-1.6 1.6-2.9 3.4-3.9 5.4L13 19.8c2.5-5.1 6.7-9.2 11.8-11.6zM14.6 30.6h-4.2c0-3.2.7-6.2 1.8-9l3.8 1.7c-.9 2.3-1.4 4.8-1.4 7.3zM3.2 35.8c.1 0 .2 0 .2-.1.1-.1.2-.3.2-.4 0 0-.1-.1-.1 0-.1.1-.2.2-.4.2s-.3 0-.4-.1c-.2-.1-.4-.1-.6-.1-.3 0-.7.2-.9.3-.3.2-.4.5-.4.8 0 .6.3.9.7 1-.1.1-.4.2-.5.3v.1c0 .1.2.3.4.4-.3.2-.6.4-.7.6v.3c0 .2.1.5.3.7.2.2.5.3.9.3.3 0 .5 0 .8-.2.5-.3.9-.7.9-1.2 0-.4-.2-.6-.5-.7-.2-.1-.9-.1-1.2-.1-.1 0-.3-.1-.3-.2s.1-.2.2-.2h.1c.2 0 .5-.1.8-.3.2-.2.4-.4.4-.9 0-.1 0-.3-.1-.3.1-.2.1-.2.2-.2zm-1.4 2.5c.3 0 .7 0 .9.1.2.1.4.2.4.5s-.3.7-.9.7c-.3 0-.5-.1-.7-.2-.2-.1-.2-.3-.2-.5s.1-.4.4-.6h.1zm.5-1.3c-.1.1-.2.1-.3.1-.5 0-.7-.5-.7-.9s.2-.7.5-.7c.5 0 .7.5.7.9 0 .2-.1.5-.2.6zm2-2.5h.3c.1-.1.1-.2.1-.3 0-.1 0-.2-.1-.2 0 0-.1-.1-.2-.1s-.3.1-.3.1v.2c.1.2.1.3.2.3zm.6 3.4c-.1 0-.1-.1-.1-.2v-2.4c-.3.1-.7.2-.9.2v.2c.1 0 .3.1.3.2v1.8c0 .2 0 .2-.1.3-.1 0-.2 0-.3.1v.2h1.4v-.2c-.1-.2-.2-.2-.3-.2zm2.3-2.7c-.3 0-.7.1-.9.3-.4.2-.6.6-.6 1.2 0 .7.4 1.5 1.4 1.5.3 0 .6-.1.8-.3.4-.3.7-.8.7-1.3-.1-.8-.6-1.4-1.4-1.4zm.4 2.5c-.1.1-.3.1-.4.1-.6 0-1-.6-1-1.4 0-.5.2-.8.4-.9.1-.1.2-.1.3-.1.6 0 1 .6 1 1.4 0 .5-.1.8-.3.9zm3.9-.3c-.3.2-.6.3-.8.3-.3 0-.6-.1-.8-.4-.2-.2-.3-.5-.3-.9 0-.5.2-1 .8-1 .4 0 .6.2.8.4h.1c.1 0 .2-.2.2-.3v-.1c0-.1-.1-.1-.2-.2s-.3-.1-.6-.1c-.2 0-.6.1-.9.3-.5.3-.7.7-.7 1.3 0 .4.1.7.3 1 .2.3.6.5 1 .5.3 0 .8-.1 1.1-.6.1 0 .1-.1 0-.2.1 0 0 0 0 0zm2-2.2c-.3 0-.7.1-.9.3-.4.2-.6.6-.6 1.2 0 .7.4 1.5 1.4 1.5.3 0 .6-.1.8-.3.4-.3.7-.8.7-1.3-.1-.8-.5-1.4-1.4-1.4zm.5 2.5c-.1.1-.3.1-.4.1-.6 0-1-.6-1-1.4 0-.5.2-.8.4-.9.1-.1.2-.1.3-.1.6 0 1 .6 1 1.4-.1.5-.1.8-.3.9zm3.8.1c-.1 0-.1-.1-.2-.3v-3.6c0-.3 0-.5.1-.6v-.1c-.3.1-.7.2-1 .3v.2c.2 0 .3 0 .4.1.1 0 .1.1.1.2v3.7c0 .1 0 .2-.1.2s-.2 0-.3.1v.2h1.4V38c-.3-.1-.4-.1-.4-.2zm3-1.6c-.1-.4-.3-1-1-1-.2 0-.5.1-.8.2-.4.2-.6.7-.6 1.3 0 .4.1.8.4 1.1.2.2.5.3.9.3.3 0 .8-.2 1.1-.5v-.2c-.3.2-.5.3-.8.3-.3 0-.6-.1-.8-.3-.2-.2-.3-.5-.3-.7v-.1c.6 0 1.6-.1 1.9-.2 0 0 .1-.1.1-.2 0 .1-.1 0-.1 0zm-.6.1c-.1 0-1 .1-1.2 0 0-.5.3-.8.6-.8.4 0 .6.4.6.8.1-.1 0 0 0 0zm3.6-.5c.1 0 .2 0 .2-.1.1-.1.2-.3.2-.4 0 0-.1-.1-.1 0-.1.1-.2.2-.4.2s-.3 0-.4-.1c-.2-.1-.4-.1-.6-.1-.3 0-.7.2-.9.3-.3.2-.4.5-.4.8 0 .6.3.9.7 1-.1.1-.4.2-.5.3v.1c0 .1.2.3.4.4-.3.2-.6.4-.7.6v.3c0 .2.1.5.3.7.2.2.5.3.9.3.3 0 .5 0 .8-.2.5-.3.9-.7.9-1.2 0-.4-.2-.6-.5-.7-.2-.1-.9-.1-1.2-.1-.1 0-.3-.1-.3-.2s.1-.2.2-.2h.1c.2 0 .5-.1.8-.3.2-.2.4-.4.4-.9 0-.1 0-.3-.1-.3.1-.2.1-.2.2-.2zm-1.4 2.5c.3 0 .7 0 .9.1.2.1.4.2.4.5s-.3.7-.9.7c-.3 0-.5-.1-.7-.2-.2-.1-.2-.3-.2-.5s.1-.4.4-.6h.1zm.5-1.3c-.1.1-.2.1-.3.1-.5 0-.7-.5-.7-.9s.2-.7.5-.7c.5 0 .7.5.7.9 0 .2 0 .5-.2.6zm3.8.8c-.2 0-.3-.1-.3-.3v-1.2c0-.3 0-.5-.2-.7-.2-.2-.4-.4-.7-.4-.2 0-.6.2-.9.4 0 0-.1.3-.2.4 0 .1.2.2.2.1.1-.2.2-.5.3-.5 0 0 .1-.1.3-.1.2 0 .4.1.5.3.1.1.1.3.1.4v.3c-.3.1-1.1.3-1.3.5 0 0-.1.3-.1.4 0 .2.1.5.2.6.1.1.3.2.4.2.2 0 .5-.1.8-.4 0 .1 0 .1.1.2 0 .1.2.2.4.2s.4-.1.6-.2v-.2c-.1-.1-.1 0-.2 0zm-.8-.3c0 .1 0 .1-.1.2s-.3.1-.4.1c-.3 0-.5-.2-.5-.5 0-.1 0-.2.1-.2.1-.1.6-.2.8-.3.1.1.1.5.1.7zm2.4.3c-.1 0-.1-.1-.2-.3v-3.6c0-.3 0-.5.1-.6v-.1c-.3.1-.7.2-1 .3v.2c.2 0 .3 0 .4.1.1 0 .1.1.1.2v3.7c0 .1 0 .2-.1.2s-.2 0-.3.1v.2h1.4V38c-.3-.1-.3-.1-.4-.2zm3-1.6c-.1-.4-.3-1-1-1-.2 0-.5.1-.8.2-.4.2-.6.7-.6 1.3 0 .4.1.8.4 1.1.2.2.5.3.9.3.3 0 .8-.2 1.1-.5v-.2c-.3.2-.5.3-.8.3-.3 0-.6-.1-.8-.3-.2-.2-.3-.5-.3-.7v-.1c.6 0 1.6-.1 1.9-.2 0 0 .1-.1.1-.2 0 .1-.1 0-.1 0zm-.6.1c-.1 0-1 .1-1.2 0 0-.5.3-.8.6-.8.4 0 .6.4.6.8.1-.1 0 0 0 0zm5-.1c-.1-.4-.3-1-1-1-.2 0-.5.1-.8.2-.4.2-.6.7-.6 1.3 0 .4.1.8.4 1.1.2.2.5.3.9.3.3 0 .8-.2 1.1-.5v-.2c-.3.2-.5.3-.8.3-.3 0-.6-.1-.8-.3-.2-.2-.3-.5-.3-.7v-.1c.6 0 1.6-.1 1.9-.2 0 0 .1-.1.1-.2-.1.1-.1 0-.1 0zm-.6.1c-.1 0-1 .1-1.2 0 0-.5.3-.8.6-.8s.6.4.6.8c0-.1 0 0 0 0zm4.2-1.1c-.1 0-.2 0-.4.1s-.3.3-.4.4v-.5c-.2.1-.6.2-.9.3v.2c.3.1.4.2.4.3v1.8c0 .1-.1.2-.1.2-.1 0-.2 0-.3.1v.2h1.5v-.2c-.2 0-.3 0-.4-.1-.1 0-.1-.1-.1-.2v-1.4c0-.1 0-.2.1-.2.1-.1.2-.3.4-.3s.3.1.5.2h.1c.1-.1.2-.4.2-.4v-.1c-.3-.4-.5-.4-.6-.4zm2.9 1c-.1-.4-.3-1-1-1-.2 0-.5.1-.8.2-.4.2-.6.7-.6 1.3 0 .4.1.8.4 1.1.2.2.5.3.9.3.3 0 .8-.2 1.1-.5v-.2c-.3.2-.5.3-.8.3-.3 0-.6-.1-.8-.3-.2-.2-.3-.5-.3-.7v-.1c.6 0 1.6-.1 1.9-.2 0 0 .1-.1.1-.2-.1.1-.1 0-.1 0zm-.6.1c-.1 0-1 .1-1.2 0 0-.5.3-.8.6-.8.4 0 .6.4.6.8.1-.1 0 0 0 0zm2.4.2c-.5-.3-.7-.4-.7-.6 0-.3.2-.4.4-.4.1 0 .3 0 .3.1.1.1.2.2.2.5h.2c0-.3 0-.5.1-.7h-.8c-.7 0-1 .4-1 .8s.2.6.8.9c.4.2.6.3.6.6 0 .2-.2.4-.5.4-.1 0-.2 0-.4-.1s-.3-.3-.4-.7c0 0-.2 0-.2.1 0 .2.1.6.1.8.2.1.5.1.7.1.6 0 1.1-.4 1.1-.9.2-.4 0-.7-.5-.9zm3.1-1.3c-.2 0-.5.1-1 .4v-.4s0-.1-.1 0c-.3.1-.7.3-1 .3v.2c.1 0 .3 0 .3.1.1 0 .1.1.1.2v3.3c0 .2 0 .3-.2.3l-.2.1v.2c.3 0 .7-.1 1.4-.1h.3v-.2c-.1 0-.3 0-.4-.1-.2 0-.2-.1-.2-.3v-1.1h.3c.3 0 .8-.1 1.2-.4.4-.3.6-.7.6-1.3 0-.3-.1-.7-.3-.9-.3-.2-.5-.3-.8-.3zm.1 2.4c-.2.1-.3.2-.5.2s-.4-.1-.6-.2c-.1-.1-.1-.2-.1-.3v-1.4c0-.1 0-.1.1-.1.2-.1.4-.2.6-.2.2 0 .4.1.6.3.2.2.2.5.2.8.1.4-.1.8-.3.9zm3.1-2.4c-.3 0-.7.1-.9.3-.4.2-.6.6-.6 1.2 0 .7.4 1.5 1.4 1.5.3 0 .6-.1.8-.3.4-.3.7-.8.7-1.3-.1-.8-.6-1.4-1.4-1.4zm.4 2.5c-.1.1-.3.1-.4.1-.6 0-1-.6-1-1.4 0-.5.2-.8.4-.9.1-.1.2-.1.3-.1.6 0 1 .6 1 1.4 0 .5-.1.8-.3.9zm4.3.1l-.1-.1v-1.3c0-.3 0-.6-.2-.8-.2-.2-.4-.4-.7-.4-.2 0-.6.2-1 .5v-.4c-.2.1-.6.2-.9.3v.2c.3.1.3.2.4.3v1.8c0 .1 0 .2-.1.2h-.3v.2h1.4v-.2c-.1 0-.2 0-.3-.1-.1 0-.1-.1-.1-.2v-1.5c0-.1 0-.2.1-.3.2-.1.4-.2.6-.2.2 0 .3.1.4.2.1.1.2.3.2.4v1.4c0 .2 0 .3-.1.3H54v.2h1.4v-.2c-.2-.2-.3-.2-.4-.3zm1.9-1.3c-.5-.3-.7-.4-.7-.6 0-.3.2-.4.4-.4.1 0 .3 0 .3.1.1.1.2.2.2.5h.2c0-.3 0-.5.1-.7h-.8c-.7 0-1 .4-1 .8s.2.6.8.9c.4.2.6.3.6.6 0 .2-.2.4-.5.4-.1 0-.2 0-.4-.1s-.3-.3-.4-.7c0 0-.2 0-.2.1 0 .2.1.6.1.8.2.1.5.1.7.1.6 0 1.1-.4 1.1-.9.3-.4.1-.7-.5-.9zm3.5 1.3c-.2 0-.3-.1-.3-.3v-1.2c0-.3 0-.5-.2-.7-.2-.2-.4-.4-.7-.4-.2 0-.6.2-.9.4 0 0-.1.3-.2.4 0 .1.2.2.2.1.1-.2.2-.5.3-.5 0 0 .1-.1.3-.1.2 0 .4.1.5.3.1.1.1.3.1.4v.3c-.3.1-1.1.3-1.3.5 0 0-.1.3-.1.4 0 .2.1.5.2.6.1.1.3.2.4.2.2 0 .5-.1.8-.4 0 .1 0 .1.1.2 0 .1.2.2.4.2s.4-.1.6-.2v-.2c0-.1 0 0-.2 0zm-.8-.3c0 .1 0 .1-.1.2s-.3.1-.4.1c-.3 0-.5-.2-.5-.5 0-.1 0-.2.1-.2.1-.1.6-.2.8-.3.2.1.2.5.1.7zm3.2-2.3c-.2 0-.6.2-1 .4v-.8c0-1.2 0-1.3.1-1.4v-.1c-.2.1-.8.2-1.1.2v.2c.1 0 .3 0 .4.1.1 0 .1.1.1.2v4.1h.3c.2.1.4.1.6.1.3 0 .8-.2 1.1-.4.4-.3.6-.7.6-1.3 0-.2-.1-.6-.3-.9-.2-.3-.5-.4-.8-.4zm.3 2.4c-.2.2-.3.2-.6.2-.2 0-.4 0-.6-.2-.1-.1-.1-.1-.1-.4v-1.4c0-.1 0-.1.1-.1.1-.1.3-.2.5-.2.3 0 .5.1.7.3.1.2.2.4.2.8 0 .5-.1.8-.2 1zm2.4.3c-.1 0-.1-.1-.1-.2v-2.4c-.3.1-.7.2-.9.2v.2c.1 0 .3.1.3.2v1.8c0 .2 0 .2-.1.3-.1 0-.2 0-.3.1v.2h1.4v-.2c-.2-.2-.2-.2-.3-.2zm-.6-3.4h.3c.1-.1.1-.2.1-.3 0-.1 0-.2-.1-.2 0 0-.1-.1-.2-.1s-.3.1-.3.1v.2c.1.2.1.3.2.3zm2.4 3.3c-.1 0-.1-.1-.2-.3v-3.6c0-.3 0-.5.1-.6v-.1c-.3.1-.7.2-1 .3v.2c.2 0 .3 0 .4.1.1 0 .1.1.1.2v3.7c0 .1 0 .2-.1.2s-.2 0-.3.1v.2h1.4V38c-.3-.1-.4-.1-.4-.2zm1.2-1.2c.6 0 1.6-.1 1.9-.2 0 0 .1-.1.1-.2-.1 0-.1 0-.1-.1-.1-.4-.3-1-1-1-.2 0-.5.1-.8.2-.4.2-.6.7-.6 1.3 0 .4.1.8.4 1.1.2.2.5.3.9.3.3 0 .8-.2 1.1-.5v-.2c-.3.2-.5.3-.8.3-.3 0-.6-.1-.8-.3-.2-.1-.3-.4-.3-.7zm.6-1.1c.4 0 .6.4.7.8v.1c-.1 0-1 .1-1.2 0-.1-.6.2-.9.5-.9z"/></g></svg>